<svg width="1341" height="508" viewBox="0 0 1341 508" fill="none" xmlns="http://www.w3.org/2000/svg">
<rect width="1341" height="508" rx="10" fill="#1E1E1E"/>
<path d="M1045.98 50L1043.21 45.104H1042.02V50H1039.5V37.436H1044.22C1045.19 37.436 1046.02 37.61 1046.7 37.958C1047.39 38.294 1047.9 38.756 1048.23 39.344C1048.58 39.92 1048.76 40.568 1048.76 41.288C1048.76 42.116 1048.52 42.866 1048.04 43.538C1047.56 44.198 1046.84 44.654 1045.89 44.906L1048.9 50H1045.98ZM1042.02 43.214H1044.13C1044.81 43.214 1045.32 43.052 1045.66 42.728C1046 42.392 1046.16 41.93 1046.16 41.342C1046.16 40.766 1046 40.322 1045.66 40.01C1045.32 39.686 1044.81 39.524 1044.13 39.524H1042.02V43.214ZM1060.3 44.798C1060.3 45.158 1060.28 45.482 1060.23 45.77H1052.94C1053 46.49 1053.25 47.054 1053.7 47.462C1054.14 47.87 1054.69 48.074 1055.34 48.074C1056.27 48.074 1056.94 47.672 1057.33 46.868H1060.05C1059.76 47.828 1059.21 48.62 1058.4 49.244C1057.58 49.856 1056.58 50.162 1055.39 50.162C1054.43 50.162 1053.57 49.952 1052.8 49.532C1052.04 49.1 1051.45 48.494 1051.02 47.714C1050.6 46.934 1050.39 46.034 1050.39 45.014C1050.39 43.982 1050.6 43.076 1051.02 42.296C1051.44 41.516 1052.02 40.916 1052.78 40.496C1053.54 40.076 1054.41 39.866 1055.39 39.866C1056.34 39.866 1057.18 40.07 1057.93 40.478C1058.68 40.886 1059.27 41.468 1059.67 42.224C1060.09 42.968 1060.3 43.826 1060.3 44.798ZM1057.69 44.078C1057.68 43.43 1057.45 42.914 1056.99 42.53C1056.54 42.134 1055.98 41.936 1055.32 41.936C1054.69 41.936 1054.17 42.128 1053.73 42.512C1053.31 42.884 1053.06 43.406 1052.96 44.078H1057.69ZM1066.3 47.678L1068.82 40.028H1071.5L1067.81 50H1064.75L1061.08 40.028H1063.78L1066.3 47.678ZM1082.19 44.798C1082.19 45.158 1082.17 45.482 1082.12 45.77H1074.83C1074.89 46.49 1075.14 47.054 1075.58 47.462C1076.03 47.87 1076.57 48.074 1077.22 48.074C1078.16 48.074 1078.82 47.672 1079.22 46.868H1081.94C1081.65 47.828 1081.1 48.62 1080.28 49.244C1079.47 49.856 1078.46 50.162 1077.28 50.162C1076.32 50.162 1075.45 49.952 1074.68 49.532C1073.93 49.1 1073.33 48.494 1072.9 47.714C1072.48 46.934 1072.27 46.034 1072.27 45.014C1072.27 43.982 1072.48 43.076 1072.9 42.296C1073.32 41.516 1073.91 40.916 1074.67 40.496C1075.42 40.076 1076.29 39.866 1077.28 39.866C1078.22 39.866 1079.07 40.07 1079.81 40.478C1080.57 40.886 1081.15 41.468 1081.56 42.224C1081.98 42.968 1082.19 43.826 1082.19 44.798ZM1079.58 44.078C1079.57 43.43 1079.33 42.914 1078.88 42.53C1078.42 42.134 1077.86 41.936 1077.2 41.936C1076.58 41.936 1076.05 42.128 1075.62 42.512C1075.2 42.884 1074.94 43.406 1074.85 44.078H1079.58ZM1089.56 39.884C1090.74 39.884 1091.7 40.262 1092.44 41.018C1093.17 41.762 1093.53 42.806 1093.53 44.15V50H1091.01V44.492C1091.01 43.7 1090.82 43.094 1090.42 42.674C1090.02 42.242 1089.48 42.026 1088.8 42.026C1088.1 42.026 1087.55 42.242 1087.14 42.674C1086.75 43.094 1086.55 43.7 1086.55 44.492V50H1084.03V40.028H1086.55V41.27C1086.89 40.838 1087.31 40.502 1087.83 40.262C1088.36 40.01 1088.93 39.884 1089.56 39.884ZM1105.34 40.028V50H1102.81V48.74C1102.48 49.172 1102.06 49.514 1101.53 49.766C1101.01 50.006 1100.45 50.126 1099.84 50.126C1099.06 50.126 1098.37 49.964 1097.77 49.64C1097.17 49.304 1096.69 48.818 1096.34 48.182C1096.01 47.534 1095.84 46.766 1095.84 45.878V40.028H1098.36V45.518C1098.36 46.31 1098.56 46.922 1098.95 47.354C1099.35 47.774 1099.89 47.984 1100.57 47.984C1101.27 47.984 1101.82 47.774 1102.21 47.354C1102.61 46.922 1102.81 46.31 1102.81 45.518V40.028H1105.34ZM1117.1 44.798C1117.1 45.158 1117.08 45.482 1117.03 45.77H1109.74C1109.8 46.49 1110.05 47.054 1110.49 47.462C1110.94 47.87 1111.48 48.074 1112.13 48.074C1113.07 48.074 1113.73 47.672 1114.13 46.868H1116.85C1116.56 47.828 1116.01 48.62 1115.19 49.244C1114.38 49.856 1113.37 50.162 1112.19 50.162C1111.23 50.162 1110.36 49.952 1109.59 49.532C1108.84 49.1 1108.24 48.494 1107.81 47.714C1107.39 46.934 1107.18 46.034 1107.18 45.014C1107.18 43.982 1107.39 43.076 1107.81 42.296C1108.23 41.516 1108.82 40.916 1109.58 40.496C1110.33 40.076 1111.2 39.866 1112.19 39.866C1113.13 39.866 1113.98 40.07 1114.72 40.478C1115.48 40.886 1116.06 41.468 1116.47 42.224C1116.89 42.968 1117.1 43.826 1117.1 44.798ZM1114.49 44.078C1114.48 43.43 1114.24 42.914 1113.79 42.53C1113.33 42.134 1112.77 41.936 1112.11 41.936C1111.49 41.936 1110.96 42.128 1110.53 42.512C1110.11 42.884 1109.85 43.406 1109.76 44.078H1114.49Z" fill="white"/>
<path d="M1253.45 50.126C1252.27 50.126 1251.19 49.85 1250.21 49.298C1249.22 48.746 1248.44 47.984 1247.87 47.012C1247.29 46.028 1247 44.918 1247 43.682C1247 42.458 1247.29 41.36 1247.87 40.388C1248.44 39.404 1249.22 38.636 1250.21 38.084C1251.19 37.532 1252.27 37.256 1253.45 37.256C1254.63 37.256 1255.71 37.532 1256.69 38.084C1257.67 38.636 1258.44 39.404 1259.01 40.388C1259.58 41.36 1259.87 42.458 1259.87 43.682C1259.87 44.918 1259.58 46.028 1259.01 47.012C1258.44 47.984 1257.67 48.746 1256.69 49.298C1255.7 49.85 1254.62 50.126 1253.45 50.126ZM1253.45 47.876C1254.2 47.876 1254.87 47.708 1255.44 47.372C1256.02 47.024 1256.47 46.532 1256.79 45.896C1257.12 45.26 1257.28 44.522 1257.28 43.682C1257.28 42.842 1257.12 42.11 1256.79 41.486C1256.47 40.85 1256.02 40.364 1255.44 40.028C1254.87 39.692 1254.2 39.524 1253.45 39.524C1252.69 39.524 1252.02 39.692 1251.43 40.028C1250.85 40.364 1250.4 40.85 1250.08 41.486C1249.76 42.11 1249.59 42.842 1249.59 43.682C1249.59 44.522 1249.76 45.26 1250.08 45.896C1250.4 46.532 1250.85 47.024 1251.43 47.372C1252.02 47.708 1252.69 47.876 1253.45 47.876ZM1264.27 41.576C1264.59 41.048 1265.01 40.634 1265.53 40.334C1266.05 40.034 1266.65 39.884 1267.33 39.884V42.53H1266.66C1265.87 42.53 1265.27 42.716 1264.86 43.088C1264.46 43.46 1264.27 44.108 1264.27 45.032V50H1261.75V40.028H1264.27V41.576ZM1268.38 44.978C1268.38 43.97 1268.57 43.076 1268.97 42.296C1269.38 41.516 1269.93 40.916 1270.63 40.496C1271.32 40.076 1272.1 39.866 1272.95 39.866C1273.6 39.866 1274.21 40.01 1274.8 40.298C1275.39 40.574 1275.86 40.946 1276.21 41.414V36.68H1278.76V50H1276.21V48.524C1275.89 49.016 1275.46 49.412 1274.89 49.712C1274.33 50.012 1273.67 50.162 1272.93 50.162C1272.09 50.162 1271.32 49.946 1270.63 49.514C1269.93 49.082 1269.38 48.476 1268.97 47.696C1268.57 46.904 1268.38 45.998 1268.38 44.978ZM1276.22 45.014C1276.22 44.402 1276.1 43.88 1275.86 43.448C1275.62 43.004 1275.3 42.668 1274.89 42.44C1274.48 42.2 1274.05 42.08 1273.58 42.08C1273.11 42.08 1272.68 42.194 1272.28 42.422C1271.89 42.65 1271.56 42.986 1271.31 43.43C1271.07 43.862 1270.95 44.378 1270.95 44.978C1270.95 45.578 1271.07 46.106 1271.31 46.562C1271.56 47.006 1271.89 47.348 1272.28 47.588C1272.69 47.828 1273.12 47.948 1273.58 47.948C1274.05 47.948 1274.48 47.834 1274.89 47.606C1275.3 47.366 1275.62 47.03 1275.86 46.598C1276.1 46.154 1276.22 45.626 1276.22 45.014ZM1290.49 44.798C1290.49 45.158 1290.47 45.482 1290.42 45.77H1283.13C1283.19 46.49 1283.44 47.054 1283.89 47.462C1284.33 47.87 1284.88 48.074 1285.52 48.074C1286.46 48.074 1287.13 47.672 1287.52 46.868H1290.24C1289.95 47.828 1289.4 48.62 1288.58 49.244C1287.77 49.856 1286.77 50.162 1285.58 50.162C1284.62 50.162 1283.75 49.952 1282.99 49.532C1282.23 49.1 1281.64 48.494 1281.2 47.714C1280.78 46.934 1280.57 46.034 1280.57 45.014C1280.57 43.982 1280.78 43.076 1281.2 42.296C1281.62 41.516 1282.21 40.916 1282.97 40.496C1283.72 40.076 1284.59 39.866 1285.58 39.866C1286.53 39.866 1287.37 40.07 1288.12 40.478C1288.87 40.886 1289.45 41.468 1289.86 42.224C1290.28 42.968 1290.49 43.826 1290.49 44.798ZM1287.88 44.078C1287.87 43.43 1287.64 42.914 1287.18 42.53C1286.72 42.134 1286.17 41.936 1285.51 41.936C1284.88 41.936 1284.35 42.128 1283.92 42.512C1283.5 42.884 1283.24 43.406 1283.15 44.078H1287.88ZM1294.85 41.576C1295.18 41.048 1295.6 40.634 1296.11 40.334C1296.64 40.034 1297.24 39.884 1297.91 39.884V42.53H1297.25C1296.45 42.53 1295.85 42.716 1295.45 43.088C1295.05 43.46 1294.85 44.108 1294.85 45.032V50H1292.33V40.028H1294.85V41.576ZM1303.43 50.162C1302.61 50.162 1301.88 50.018 1301.23 49.73C1300.58 49.43 1300.07 49.028 1299.68 48.524C1299.31 48.02 1299.11 47.462 1299.07 46.85H1301.61C1301.66 47.234 1301.84 47.552 1302.17 47.804C1302.5 48.056 1302.92 48.182 1303.41 48.182C1303.89 48.182 1304.26 48.086 1304.52 47.894C1304.8 47.702 1304.94 47.456 1304.94 47.156C1304.94 46.832 1304.77 46.592 1304.43 46.436C1304.11 46.268 1303.59 46.088 1302.87 45.896C1302.12 45.716 1301.51 45.53 1301.03 45.338C1300.56 45.146 1300.16 44.852 1299.81 44.456C1299.47 44.06 1299.3 43.526 1299.3 42.854C1299.3 42.302 1299.46 41.798 1299.77 41.342C1300.1 40.886 1300.55 40.526 1301.14 40.262C1301.74 39.998 1302.44 39.866 1303.25 39.866C1304.43 39.866 1305.38 40.166 1306.09 40.766C1306.8 41.354 1307.19 42.152 1307.26 43.16H1304.85C1304.81 42.764 1304.64 42.452 1304.34 42.224C1304.06 41.984 1303.67 41.864 1303.17 41.864C1302.72 41.864 1302.36 41.948 1302.11 42.116C1301.87 42.284 1301.75 42.518 1301.75 42.818C1301.75 43.154 1301.92 43.412 1302.26 43.592C1302.59 43.76 1303.11 43.934 1303.82 44.114C1304.54 44.294 1305.14 44.48 1305.6 44.672C1306.07 44.864 1306.47 45.164 1306.81 45.572C1307.16 45.968 1307.34 46.496 1307.35 47.156C1307.35 47.732 1307.19 48.248 1306.86 48.704C1306.55 49.16 1306.1 49.52 1305.5 49.784C1304.91 50.036 1304.22 50.162 1303.43 50.162Z" fill="white"/>
<path d="M45.6768 54L42.5968 48.28H42.1348V54H37.8228V38.49H44.6208C45.8675 38.49 46.9235 38.71 47.7888 39.15C48.6542 39.5753 49.3068 40.1693 49.7468 40.932C50.1868 41.68 50.4068 42.5233 50.4068 43.462C50.4068 44.518 50.1135 45.4493 49.5268 46.256C48.9548 47.048 48.1115 47.6127 46.9968 47.95L50.4948 54H45.6768ZM42.1348 45.332H44.2688C44.8555 45.332 45.2955 45.1927 45.5888 44.914C45.8822 44.6353 46.0288 44.232 46.0288 43.704C46.0288 43.2053 45.8748 42.8167 45.5668 42.538C45.2735 42.2447 44.8408 42.098 44.2688 42.098H42.1348V45.332ZM64.1597 47.686C64.1597 48.0233 64.1377 48.3607 64.0937 48.698H55.9317C55.9757 49.3727 56.1591 49.8787 56.4817 50.216C56.8191 50.5387 57.2444 50.7 57.7577 50.7C58.4764 50.7 58.9897 50.3773 59.2977 49.732H63.8957C63.7051 50.5827 63.3311 51.3453 62.7737 52.02C62.2311 52.68 61.5417 53.2007 60.7057 53.582C59.8697 53.9633 58.9457 54.154 57.9337 54.154C56.7164 54.154 55.6311 53.8973 54.6777 53.384C53.7391 52.8707 52.9984 52.1373 52.4557 51.184C51.9277 50.2307 51.6637 49.1087 51.6637 47.818C51.6637 46.5273 51.9277 45.4127 52.4557 44.474C52.9837 43.5207 53.7171 42.7873 54.6557 42.274C55.6091 41.7607 56.7017 41.504 57.9337 41.504C59.1511 41.504 60.2291 41.7533 61.1677 42.252C62.1064 42.7507 62.8397 43.4693 63.3677 44.408C63.8957 45.332 64.1597 46.4247 64.1597 47.686ZM59.7597 46.608C59.7597 46.08 59.5837 45.6693 59.2317 45.376C58.8797 45.068 58.4397 44.914 57.9117 44.914C57.3837 44.914 56.9511 45.0607 56.6137 45.354C56.2764 45.6327 56.0564 46.0507 55.9537 46.608H59.7597ZM71.8424 49.93L74.1524 41.658H78.7504L74.5044 54H69.1364L64.8904 41.658H69.4884L71.8424 49.93ZM92.0035 47.686C92.0035 48.0233 91.9815 48.3607 91.9375 48.698H83.7755C83.8195 49.3727 84.0028 49.8787 84.3255 50.216C84.6628 50.5387 85.0882 50.7 85.6015 50.7C86.3202 50.7 86.8335 50.3773 87.1415 49.732H91.7395C91.5488 50.5827 91.1748 51.3453 90.6175 52.02C90.0748 52.68 89.3855 53.2007 88.5495 53.582C87.7135 53.9633 86.7895 54.154 85.7775 54.154C84.5602 54.154 83.4748 53.8973 82.5215 53.384C81.5828 52.8707 80.8422 52.1373 80.2995 51.184C79.7715 50.2307 79.5075 49.1087 79.5075 47.818C79.5075 46.5273 79.7715 45.4127 80.2995 44.474C80.8275 43.5207 81.5608 42.7873 82.4995 42.274C83.4528 41.7607 84.5455 41.504 85.7775 41.504C86.9948 41.504 88.0728 41.7533 89.0115 42.252C89.9502 42.7507 90.6835 43.4693 91.2115 44.408C91.7395 45.332 92.0035 46.4247 92.0035 47.686ZM87.6035 46.608C87.6035 46.08 87.4275 45.6693 87.0755 45.376C86.7235 45.068 86.2835 44.914 85.7555 44.914C85.2275 44.914 84.7948 45.0607 84.4575 45.354C84.1202 45.6327 83.9002 46.0507 83.7975 46.608H87.6035ZM101.842 41.548C103.265 41.548 104.394 42.0247 105.23 42.978C106.066 43.9167 106.484 45.1927 106.484 46.806V54H102.172V47.378C102.172 46.674 101.989 46.124 101.622 45.728C101.255 45.3173 100.764 45.112 100.148 45.112C99.5028 45.112 98.9968 45.3173 98.6301 45.728C98.2635 46.124 98.0801 46.674 98.0801 47.378V54H93.7681V41.658H98.0801V43.418C98.4615 42.8607 98.9748 42.4133 99.6201 42.076C100.265 41.724 101.006 41.548 101.842 41.548ZM121.478 41.658V54H117.144V52.24C116.777 52.7973 116.271 53.252 115.626 53.604C114.981 53.9413 114.24 54.11 113.404 54.11C111.967 54.11 110.83 53.6407 109.994 52.702C109.173 51.7487 108.762 50.458 108.762 48.83V41.658H113.052V48.28C113.052 48.984 113.235 49.5413 113.602 49.952C113.983 50.348 114.482 50.546 115.098 50.546C115.729 50.546 116.227 50.348 116.594 49.952C116.961 49.5413 117.144 48.984 117.144 48.28V41.658H121.478ZM135.724 47.686C135.724 48.0233 135.702 48.3607 135.658 48.698H127.496C127.54 49.3727 127.724 49.8787 128.046 50.216C128.384 50.5387 128.809 50.7 129.322 50.7C130.041 50.7 130.554 50.3773 130.862 49.732H135.46C135.27 50.5827 134.896 51.3453 134.338 52.02C133.796 52.68 133.106 53.2007 132.27 53.582C131.434 53.9633 130.51 54.154 129.498 54.154C128.281 54.154 127.196 53.8973 126.242 53.384C125.304 52.8707 124.563 52.1373 124.02 51.184C123.492 50.2307 123.228 49.1087 123.228 47.818C123.228 46.5273 123.492 45.4127 124.02 44.474C124.548 43.5207 125.282 42.7873 126.22 42.274C127.174 41.7607 128.266 41.504 129.498 41.504C130.716 41.504 131.794 41.7533 132.732 42.252C133.671 42.7507 134.404 43.4693 134.932 44.408C135.46 45.332 135.724 46.4247 135.724 47.686ZM131.324 46.608C131.324 46.08 131.148 45.6693 130.796 45.376C130.444 45.068 130.004 44.914 129.476 44.914C128.948 44.914 128.516 45.0607 128.178 45.354C127.841 45.6327 127.621 46.0507 127.518 46.608H131.324ZM147.618 49.93L149.928 41.658H154.526L150.28 54H144.912L140.666 41.658H145.264L147.618 49.93ZM161.245 54.154C160.13 54.154 159.133 53.9707 158.253 53.604C157.388 53.2227 156.698 52.7093 156.185 52.064C155.686 51.404 155.408 50.6633 155.349 49.842H159.529C159.588 50.238 159.771 50.546 160.079 50.766C160.387 50.986 160.768 51.096 161.223 51.096C161.575 51.096 161.854 51.0227 162.059 50.876C162.264 50.7293 162.367 50.5387 162.367 50.304C162.367 49.996 162.198 49.7687 161.861 49.622C161.524 49.4753 160.966 49.314 160.189 49.138C159.309 48.962 158.576 48.764 157.989 48.544C157.402 48.324 156.889 47.9647 156.449 47.466C156.024 46.9673 155.811 46.2927 155.811 45.442C155.811 44.7087 156.009 44.0487 156.405 43.462C156.801 42.8607 157.38 42.384 158.143 42.032C158.92 41.68 159.852 41.504 160.937 41.504C162.55 41.504 163.819 41.9 164.743 42.692C165.667 43.484 166.202 44.5253 166.349 45.816H162.455C162.382 45.42 162.206 45.1193 161.927 44.914C161.663 44.694 161.304 44.584 160.849 44.584C160.497 44.584 160.226 44.65 160.035 44.782C159.859 44.914 159.771 45.0973 159.771 45.332C159.771 45.6253 159.94 45.8527 160.277 46.014C160.614 46.1607 161.157 46.3147 161.905 46.476C162.8 46.6667 163.54 46.8793 164.127 47.114C164.728 47.3487 165.249 47.73 165.689 48.258C166.144 48.7713 166.371 49.4753 166.371 50.37C166.371 51.0887 166.158 51.734 165.733 52.306C165.322 52.878 164.728 53.3327 163.951 53.67C163.188 53.9927 162.286 54.154 161.245 54.154ZM180.138 54.154C178.686 54.154 177.351 53.8167 176.134 53.142C174.916 52.4527 173.948 51.5067 173.23 50.304C172.526 49.0867 172.174 47.7153 172.174 46.19C172.174 44.6647 172.526 43.3007 173.23 42.098C173.948 40.8807 174.916 39.9347 176.134 39.26C177.351 38.5853 178.686 38.248 180.138 38.248C181.604 38.248 182.939 38.5853 184.142 39.26C185.359 39.9347 186.32 40.8807 187.024 42.098C187.728 43.3007 188.08 44.6647 188.08 46.19C188.08 47.7153 187.728 49.0867 187.024 50.304C186.32 51.5067 185.359 52.4527 184.142 53.142C182.924 53.8167 181.59 54.154 180.138 54.154ZM180.138 50.15C181.238 50.15 182.103 49.7907 182.734 49.072C183.379 48.3533 183.702 47.3927 183.702 46.19C183.702 44.958 183.379 43.99 182.734 43.286C182.103 42.5673 181.238 42.208 180.138 42.208C179.023 42.208 178.15 42.5673 177.52 43.286C176.889 43.99 176.574 44.958 176.574 46.19C176.574 47.4073 176.889 48.3753 177.52 49.094C178.15 49.798 179.023 50.15 180.138 50.15ZM194.33 43.836C194.814 43.132 195.401 42.5747 196.09 42.164C196.779 41.7533 197.52 41.548 198.312 41.548V46.146H197.102C196.163 46.146 195.467 46.3293 195.012 46.696C194.557 47.0627 194.33 47.7007 194.33 48.61V54H190.018V41.658H194.33V43.836ZM199.154 47.818C199.154 46.542 199.381 45.4273 199.836 44.474C200.305 43.5207 200.943 42.7873 201.75 42.274C202.557 41.7607 203.451 41.504 204.434 41.504C205.226 41.504 205.93 41.6727 206.546 42.01C207.177 42.3327 207.668 42.78 208.02 43.352V37.72H212.354V54H208.02V52.284C207.683 52.856 207.206 53.3107 206.59 53.648C205.974 53.9853 205.248 54.154 204.412 54.154C203.429 54.154 202.535 53.8973 201.728 53.384C200.936 52.8707 200.305 52.1373 199.836 51.184C199.381 50.216 199.154 49.094 199.154 47.818ZM208.042 47.818C208.042 47.026 207.822 46.4027 207.382 45.948C206.957 45.4933 206.429 45.266 205.798 45.266C205.153 45.266 204.617 45.4933 204.192 45.948C203.767 46.388 203.554 47.0113 203.554 47.818C203.554 48.61 203.767 49.2407 204.192 49.71C204.617 50.1647 205.153 50.392 205.798 50.392C206.429 50.392 206.957 50.1647 207.382 49.71C207.822 49.2553 208.042 48.6247 208.042 47.818ZM226.603 47.686C226.603 48.0233 226.581 48.3607 226.537 48.698H218.375C218.419 49.3727 218.602 49.8787 218.925 50.216C219.262 50.5387 219.688 50.7 220.201 50.7C220.92 50.7 221.433 50.3773 221.741 49.732H226.339C226.148 50.5827 225.774 51.3453 225.217 52.02C224.674 52.68 223.985 53.2007 223.149 53.582C222.313 53.9633 221.389 54.154 220.377 54.154C219.16 54.154 218.074 53.8973 217.121 53.384C216.182 52.8707 215.442 52.1373 214.899 51.184C214.371 50.2307 214.107 49.1087 214.107 47.818C214.107 46.5273 214.371 45.4127 214.899 44.474C215.427 43.5207 216.16 42.7873 217.099 42.274C218.052 41.7607 219.145 41.504 220.377 41.504C221.594 41.504 222.672 41.7533 223.611 42.252C224.55 42.7507 225.283 43.4693 225.811 44.408C226.339 45.332 226.603 46.4247 226.603 47.686ZM222.203 46.608C222.203 46.08 222.027 45.6693 221.675 45.376C221.323 45.068 220.883 44.914 220.355 44.914C219.827 44.914 219.394 45.0607 219.057 45.354C218.72 45.6327 218.5 46.0507 218.397 46.608H222.203ZM232.68 43.836C233.164 43.132 233.75 42.5747 234.44 42.164C235.129 41.7533 235.87 41.548 236.662 41.548V46.146H235.452C234.513 46.146 233.816 46.3293 233.362 46.696C232.907 47.0627 232.68 47.7007 232.68 48.61V54H228.368V41.658H232.68V43.836ZM243.466 54.154C242.351 54.154 241.354 53.9707 240.474 53.604C239.608 53.2227 238.919 52.7093 238.406 52.064C237.907 51.404 237.628 50.6633 237.57 49.842H241.75C241.808 50.238 241.992 50.546 242.3 50.766C242.608 50.986 242.989 51.096 243.444 51.096C243.796 51.096 244.074 51.0227 244.28 50.876C244.485 50.7293 244.588 50.5387 244.588 50.304C244.588 49.996 244.419 49.7687 244.082 49.622C243.744 49.4753 243.187 49.314 242.41 49.138C241.53 48.962 240.796 48.764 240.21 48.544C239.623 48.324 239.11 47.9647 238.67 47.466C238.244 46.9673 238.032 46.2927 238.032 45.442C238.032 44.7087 238.23 44.0487 238.626 43.462C239.022 42.8607 239.601 42.384 240.364 42.032C241.141 41.68 242.072 41.504 243.158 41.504C244.771 41.504 246.04 41.9 246.964 42.692C247.888 43.484 248.423 44.5253 248.57 45.816H244.676C244.602 45.42 244.426 45.1193 244.148 44.914C243.884 44.694 243.524 44.584 243.07 44.584C242.718 44.584 242.446 44.65 242.256 44.782C242.08 44.914 241.992 45.0973 241.992 45.332C241.992 45.6253 242.16 45.8527 242.498 46.014C242.835 46.1607 243.378 46.3147 244.126 46.476C245.02 46.6667 245.761 46.8793 246.348 47.114C246.949 47.3487 247.47 47.73 247.91 48.258C248.364 48.7713 248.592 49.4753 248.592 50.37C248.592 51.0887 248.379 51.734 247.954 52.306C247.543 52.878 246.949 53.3327 246.172 53.67C245.409 53.9927 244.507 54.154 243.466 54.154Z" fill="white"/>
<ellipse cx="1012.53" cy="42.5" rx="8.57595" ry="7.5" fill="#E95838"/>
<ellipse cx="1220.64" cy="42.5" rx="8.57595" ry="7.5" fill="#CFF468"/>
<line x1="113.203" y1="432.5" x2="1317.27" y2="432.5" stroke="#D9D9D9"/>
<line x1="113.203" y1="139.5" x2="1317.27" y2="139.5" stroke="#D9D9D9" stroke-dasharray="2 10"/>
<line x1="113.203" y1="212.5" x2="1317.27" y2="212.5" stroke="#D9D9D9" stroke-dasharray="2 10"/>
<line x1="113.203" y1="286.5" x2="1317.27" y2="286.5" stroke="#D9D9D9" stroke-dasharray="2 10"/>
<line x1="113.203" y1="359.5" x2="1317.27" y2="359.5" stroke="#D9D9D9" stroke-dasharray="2 10"/>
<path d="M966.086 457.126C965.21 457.126 964.418 456.976 963.71 456.676C963.014 456.376 962.462 455.944 962.054 455.38C961.646 454.816 961.436 454.15 961.424 453.382H964.124C964.16 453.898 964.34 454.306 964.664 454.606C965 454.906 965.456 455.056 966.032 455.056C966.62 455.056 967.082 454.918 967.418 454.642C967.754 454.354 967.922 453.982 967.922 453.526C967.922 453.154 967.808 452.848 967.58 452.608C967.352 452.368 967.064 452.182 966.716 452.05C966.38 451.906 965.912 451.75 965.312 451.582C964.496 451.342 963.83 451.108 963.314 450.88C962.81 450.64 962.372 450.286 962 449.818C961.64 449.338 961.46 448.702 961.46 447.91C961.46 447.166 961.646 446.518 962.018 445.966C962.39 445.414 962.912 444.994 963.584 444.706C964.256 444.406 965.024 444.256 965.888 444.256C967.184 444.256 968.234 444.574 969.038 445.21C969.854 445.834 970.304 446.71 970.388 447.838H967.616C967.592 447.406 967.406 447.052 967.058 446.776C966.722 446.488 966.272 446.344 965.708 446.344C965.216 446.344 964.82 446.47 964.52 446.722C964.232 446.974 964.088 447.34 964.088 447.82C964.088 448.156 964.196 448.438 964.412 448.666C964.64 448.882 964.916 449.062 965.24 449.206C965.576 449.338 966.044 449.494 966.644 449.674C967.46 449.914 968.126 450.154 968.642 450.394C969.158 450.634 969.602 450.994 969.974 451.474C970.346 451.954 970.532 452.584 970.532 453.364C970.532 454.036 970.358 454.66 970.01 455.236C969.662 455.812 969.152 456.274 968.48 456.622C967.808 456.958 967.01 457.126 966.086 457.126ZM981.987 451.798C981.987 452.158 981.963 452.482 981.915 452.77H974.625C974.685 453.49 974.937 454.054 975.381 454.462C975.825 454.87 976.371 455.074 977.019 455.074C977.955 455.074 978.621 454.672 979.017 453.868H981.735C981.447 454.828 980.895 455.62 980.079 456.244C979.263 456.856 978.261 457.162 977.073 457.162C976.113 457.162 975.249 456.952 974.481 456.532C973.725 456.1 973.131 455.494 972.699 454.714C972.279 453.934 972.069 453.034 972.069 452.014C972.069 450.982 972.279 450.076 972.699 449.296C973.119 448.516 973.707 447.916 974.463 447.496C975.219 447.076 976.089 446.866 977.073 446.866C978.021 446.866 978.867 447.07 979.611 447.478C980.367 447.886 980.949 448.468 981.357 449.224C981.777 449.968 981.987 450.826 981.987 451.798ZM979.377 451.078C979.365 450.43 979.131 449.914 978.675 449.53C978.219 449.134 977.661 448.936 977.001 448.936C976.377 448.936 975.849 449.128 975.417 449.512C974.997 449.884 974.739 450.406 974.643 451.078H979.377ZM986.346 448.468C986.67 448.012 987.114 447.634 987.678 447.334C988.254 447.022 988.908 446.866 989.64 446.866C990.492 446.866 991.26 447.076 991.944 447.496C992.64 447.916 993.186 448.516 993.582 449.296C993.99 450.064 994.194 450.958 994.194 451.978C994.194 452.998 993.99 453.904 993.582 454.696C993.186 455.476 992.64 456.082 991.944 456.514C991.26 456.946 990.492 457.162 989.64 457.162C988.908 457.162 988.26 457.012 987.696 456.712C987.144 456.412 986.694 456.034 986.346 455.578V461.752H983.826V447.028H986.346V448.468ZM991.62 451.978C991.62 451.378 991.494 450.862 991.242 450.43C991.002 449.986 990.678 449.65 990.27 449.422C989.874 449.194 989.442 449.08 988.974 449.08C988.518 449.08 988.086 449.2 987.678 449.44C987.282 449.668 986.958 450.004 986.706 450.448C986.466 450.892 986.346 451.414 986.346 452.014C986.346 452.614 986.466 453.136 986.706 453.58C986.958 454.024 987.282 454.366 987.678 454.606C988.086 454.834 988.518 454.948 988.974 454.948C989.442 454.948 989.874 454.828 990.27 454.588C990.678 454.348 991.002 454.006 991.242 453.562C991.494 453.118 991.62 452.59 991.62 451.978Z" fill="white"/>
<path d="M222.827 444.436V446.47H217.589V449.692H221.603V451.69H217.589V457H215.069V444.436H222.827ZM233.884 451.798C233.884 452.158 233.86 452.482 233.812 452.77H226.522C226.582 453.49 226.834 454.054 227.278 454.462C227.722 454.87 228.268 455.074 228.916 455.074C229.852 455.074 230.518 454.672 230.914 453.868H233.632C233.344 454.828 232.792 455.62 231.976 456.244C231.16 456.856 230.158 457.162 228.97 457.162C228.01 457.162 227.146 456.952 226.378 456.532C225.622 456.1 225.028 455.494 224.596 454.714C224.176 453.934 223.966 453.034 223.966 452.014C223.966 450.982 224.176 450.076 224.596 449.296C225.016 448.516 225.604 447.916 226.36 447.496C227.116 447.076 227.986 446.866 228.97 446.866C229.918 446.866 230.764 447.07 231.508 447.478C232.264 447.886 232.846 448.468 233.254 449.224C233.674 449.968 233.884 450.826 233.884 451.798ZM231.274 451.078C231.262 450.43 231.028 449.914 230.572 449.53C230.116 449.134 229.558 448.936 228.898 448.936C228.274 448.936 227.746 449.128 227.314 449.512C226.894 449.884 226.636 450.406 226.54 451.078H231.274ZM238.243 448.486C238.567 448.006 239.011 447.616 239.575 447.316C240.151 447.016 240.805 446.866 241.537 446.866C242.389 446.866 243.157 447.076 243.841 447.496C244.537 447.916 245.083 448.516 245.479 449.296C245.887 450.064 246.091 450.958 246.091 451.978C246.091 452.998 245.887 453.904 245.479 454.696C245.083 455.476 244.537 456.082 243.841 456.514C243.157 456.946 242.389 457.162 241.537 457.162C240.793 457.162 240.139 457.018 239.575 456.73C239.023 456.43 238.579 456.046 238.243 455.578V457H235.723V443.68H238.243V448.486ZM243.517 451.978C243.517 451.378 243.391 450.862 243.139 450.43C242.899 449.986 242.575 449.65 242.167 449.422C241.771 449.194 241.339 449.08 240.871 449.08C240.415 449.08 239.983 449.2 239.575 449.44C239.179 449.668 238.855 450.004 238.603 450.448C238.363 450.892 238.243 451.414 238.243 452.014C238.243 452.614 238.363 453.136 238.603 453.58C238.855 454.024 239.179 454.366 239.575 454.606C239.983 454.834 240.415 454.948 240.871 454.948C241.339 454.948 241.771 454.828 242.167 454.588C242.575 454.348 242.899 454.006 243.139 453.562C243.391 453.118 243.517 452.59 243.517 451.978Z" fill="white"/>
<path d="M335.109 444.436V457H332.589V448.828L329.223 457H327.315L323.931 448.828V457H321.411V444.436H324.273L328.269 453.778L332.265 444.436H335.109ZM336.952 451.978C336.952 450.97 337.15 450.076 337.546 449.296C337.954 448.516 338.5 447.916 339.184 447.496C339.88 447.076 340.654 446.866 341.506 446.866C342.25 446.866 342.898 447.016 343.45 447.316C344.014 447.616 344.464 447.994 344.8 448.45V447.028H347.338V457H344.8V455.542C344.476 456.01 344.026 456.4 343.45 456.712C342.886 457.012 342.232 457.162 341.488 457.162C340.648 457.162 339.88 456.946 339.184 456.514C338.5 456.082 337.954 455.476 337.546 454.696C337.15 453.904 336.952 452.998 336.952 451.978ZM344.8 452.014C344.8 451.402 344.68 450.88 344.44 450.448C344.2 450.004 343.876 449.668 343.468 449.44C343.06 449.2 342.622 449.08 342.154 449.08C341.686 449.08 341.254 449.194 340.858 449.422C340.462 449.65 340.138 449.986 339.886 450.43C339.646 450.862 339.526 451.378 339.526 451.978C339.526 452.578 339.646 453.106 339.886 453.562C340.138 454.006 340.462 454.348 340.858 454.588C341.266 454.828 341.698 454.948 342.154 454.948C342.622 454.948 343.06 454.834 343.468 454.606C343.876 454.366 344.2 454.03 344.44 453.598C344.68 453.154 344.8 452.626 344.8 452.014ZM352.319 448.576C352.643 448.048 353.063 447.634 353.579 447.334C354.107 447.034 354.707 446.884 355.379 446.884V449.53H354.713C353.921 449.53 353.321 449.716 352.913 450.088C352.517 450.46 352.319 451.108 352.319 452.032V457H349.799V447.028H352.319V448.576Z" fill="white"/>
<path d="M435.456 454.606H430.452L429.624 457H426.978L431.496 444.418H434.43L438.948 457H436.284L435.456 454.606ZM434.772 452.59L432.954 447.334L431.136 452.59H434.772ZM443.157 448.468C443.481 448.012 443.925 447.634 444.489 447.334C445.065 447.022 445.719 446.866 446.451 446.866C447.303 446.866 448.071 447.076 448.755 447.496C449.451 447.916 449.997 448.516 450.393 449.296C450.801 450.064 451.005 450.958 451.005 451.978C451.005 452.998 450.801 453.904 450.393 454.696C449.997 455.476 449.451 456.082 448.755 456.514C448.071 456.946 447.303 457.162 446.451 457.162C445.719 457.162 445.071 457.012 444.507 456.712C443.955 456.412 443.505 456.034 443.157 455.578V461.752H440.637V447.028H443.157V448.468ZM448.431 451.978C448.431 451.378 448.305 450.862 448.053 450.43C447.813 449.986 447.489 449.65 447.081 449.422C446.685 449.194 446.253 449.08 445.785 449.08C445.329 449.08 444.897 449.2 444.489 449.44C444.093 449.668 443.769 450.004 443.517 450.448C443.277 450.892 443.157 451.414 443.157 452.014C443.157 452.614 443.277 453.136 443.517 453.58C443.769 454.024 444.093 454.366 444.489 454.606C444.897 454.834 445.329 454.948 445.785 454.948C446.253 454.948 446.685 454.828 447.081 454.588C447.489 454.348 447.813 454.006 448.053 453.562C448.305 453.118 448.431 452.59 448.431 451.978ZM455.356 448.576C455.68 448.048 456.1 447.634 456.616 447.334C457.144 447.034 457.744 446.884 458.416 446.884V449.53H457.75C456.958 449.53 456.358 449.716 455.95 450.088C455.554 450.46 455.356 451.108 455.356 452.032V457H452.836V447.028H455.356V448.576Z" fill="white"/>
<path d="M548.936 444.436V457H546.416V448.828L543.05 457H541.142L537.758 448.828V457H535.238V444.436H538.1L542.096 453.778L546.092 444.436H548.936ZM550.779 451.978C550.779 450.97 550.977 450.076 551.373 449.296C551.781 448.516 552.327 447.916 553.011 447.496C553.707 447.076 554.481 446.866 555.333 446.866C556.077 446.866 556.725 447.016 557.277 447.316C557.841 447.616 558.291 447.994 558.627 448.45V447.028H561.165V457H558.627V455.542C558.303 456.01 557.853 456.4 557.277 456.712C556.713 457.012 556.059 457.162 555.315 457.162C554.475 457.162 553.707 456.946 553.011 456.514C552.327 456.082 551.781 455.476 551.373 454.696C550.977 453.904 550.779 452.998 550.779 451.978ZM558.627 452.014C558.627 451.402 558.507 450.88 558.267 450.448C558.027 450.004 557.703 449.668 557.295 449.44C556.887 449.2 556.449 449.08 555.981 449.08C555.513 449.08 555.081 449.194 554.685 449.422C554.289 449.65 553.965 449.986 553.713 450.43C553.473 450.862 553.353 451.378 553.353 451.978C553.353 452.578 553.473 453.106 553.713 453.562C553.965 454.006 554.289 454.348 554.685 454.588C555.093 454.828 555.525 454.948 555.981 454.948C556.449 454.948 556.887 454.834 557.295 454.606C557.703 454.366 558.027 454.03 558.267 453.598C558.507 453.154 558.627 452.626 558.627 452.014ZM573.167 447.028L566.993 461.716H564.311L566.471 456.748L562.475 447.028H565.301L567.875 453.994L570.485 447.028H573.167Z" fill="white"/>
<path d="M648.905 444.436V453.256C648.905 454.48 648.551 455.434 647.843 456.118C647.135 456.79 646.187 457.126 644.999 457.126C643.799 457.126 642.827 456.778 642.083 456.082C641.351 455.386 640.985 454.414 640.985 453.166H643.505C643.517 453.706 643.643 454.126 643.883 454.426C644.135 454.726 644.495 454.876 644.963 454.876C645.419 454.876 645.767 454.732 646.007 454.444C646.247 454.156 646.367 453.76 646.367 453.256V444.436H648.905ZM661.259 447.028V457H658.721V455.74C658.397 456.172 657.971 456.514 657.443 456.766C656.927 457.006 656.363 457.126 655.751 457.126C654.971 457.126 654.281 456.964 653.681 456.64C653.081 456.304 652.607 455.818 652.259 455.182C651.923 454.534 651.755 453.766 651.755 452.878V447.028H654.275V452.518C654.275 453.31 654.473 453.922 654.869 454.354C655.265 454.774 655.805 454.984 656.489 454.984C657.185 454.984 657.731 454.774 658.127 454.354C658.523 453.922 658.721 453.31 658.721 452.518V447.028H661.259ZM669.271 446.884C670.459 446.884 671.419 447.262 672.151 448.018C672.883 448.762 673.249 449.806 673.249 451.15V457H670.729V451.492C670.729 450.7 670.531 450.094 670.135 449.674C669.739 449.242 669.199 449.026 668.515 449.026C667.819 449.026 667.267 449.242 666.859 449.674C666.463 450.094 666.265 450.7 666.265 451.492V457H663.745V447.028H666.265V448.27C666.601 447.838 667.027 447.502 667.543 447.262C668.071 447.01 668.647 446.884 669.271 446.884Z" fill="white"/>
<path d="M755.247 444.436V453.256C755.247 454.48 754.893 455.434 754.185 456.118C753.477 456.79 752.529 457.126 751.341 457.126C750.141 457.126 749.169 456.778 748.425 456.082C747.693 455.386 747.327 454.414 747.327 453.166H749.847C749.859 453.706 749.985 454.126 750.225 454.426C750.477 454.726 750.837 454.876 751.305 454.876C751.761 454.876 752.109 454.732 752.349 454.444C752.589 454.156 752.709 453.76 752.709 453.256V444.436H755.247ZM767.601 447.028V457H765.063V455.74C764.739 456.172 764.313 456.514 763.785 456.766C763.269 457.006 762.705 457.126 762.093 457.126C761.313 457.126 760.623 456.964 760.023 456.64C759.423 456.304 758.949 455.818 758.601 455.182C758.265 454.534 758.097 453.766 758.097 452.878V447.028H760.617V452.518C760.617 453.31 760.815 453.922 761.211 454.354C761.607 454.774 762.147 454.984 762.831 454.984C763.527 454.984 764.073 454.774 764.469 454.354C764.865 453.922 765.063 453.31 765.063 452.518V447.028H767.601ZM772.607 443.68V457H770.087V443.68H772.607Z" fill="white"/>
<path d="M863.111 454.606H858.107L857.279 457H854.633L859.151 444.418H862.085L866.603 457H863.939L863.111 454.606ZM862.427 452.59L860.609 447.334L858.791 452.59H862.427ZM877.705 447.028V457H875.167V455.74C874.843 456.172 874.417 456.514 873.889 456.766C873.373 457.006 872.809 457.126 872.197 457.126C871.417 457.126 870.727 456.964 870.127 456.64C869.527 456.304 869.053 455.818 868.705 455.182C868.369 454.534 868.201 453.766 868.201 452.878V447.028H870.721V452.518C870.721 453.31 870.919 453.922 871.315 454.354C871.711 454.774 872.251 454.984 872.935 454.984C873.631 454.984 874.177 454.774 874.573 454.354C874.969 453.922 875.167 453.31 875.167 452.518V447.028H877.705ZM884.098 446.866C884.842 446.866 885.496 447.016 886.06 447.316C886.624 447.604 887.068 447.982 887.392 448.45V447.028H889.93V457.072C889.93 457.996 889.744 458.818 889.372 459.538C889 460.27 888.442 460.846 887.698 461.266C886.954 461.698 886.054 461.914 884.998 461.914C883.582 461.914 882.418 461.584 881.506 460.924C880.606 460.264 880.096 459.364 879.976 458.224H882.478C882.61 458.68 882.892 459.04 883.324 459.304C883.768 459.58 884.302 459.718 884.926 459.718C885.658 459.718 886.252 459.496 886.708 459.052C887.164 458.62 887.392 457.96 887.392 457.072V455.524C887.068 455.992 886.618 456.382 886.042 456.694C885.478 457.006 884.83 457.162 884.098 457.162C883.258 457.162 882.49 456.946 881.794 456.514C881.098 456.082 880.546 455.476 880.138 454.696C879.742 453.904 879.544 452.998 879.544 451.978C879.544 450.97 879.742 450.076 880.138 449.296C880.546 448.516 881.092 447.916 881.776 447.496C882.472 447.076 883.246 446.866 884.098 446.866ZM887.392 452.014C887.392 451.402 887.272 450.88 887.032 450.448C886.792 450.004 886.468 449.668 886.06 449.44C885.652 449.2 885.214 449.08 884.746 449.08C884.278 449.08 883.846 449.194 883.45 449.422C883.054 449.65 882.73 449.986 882.478 450.43C882.238 450.862 882.118 451.378 882.118 451.978C882.118 452.578 882.238 453.106 882.478 453.562C882.73 454.006 883.054 454.348 883.45 454.588C883.858 454.828 884.29 454.948 884.746 454.948C885.214 454.948 885.652 454.834 886.06 454.606C886.468 454.366 886.792 454.03 887.032 453.598C887.272 453.154 887.392 452.626 887.392 452.014Z" fill="white"/>
<path d="M1053.34 457.126C1052.16 457.126 1051.08 456.85 1050.1 456.298C1049.12 455.746 1048.34 454.984 1047.76 454.012C1047.18 453.028 1046.9 451.918 1046.9 450.682C1046.9 449.458 1047.18 448.36 1047.76 447.388C1048.34 446.404 1049.12 445.636 1050.1 445.084C1051.08 444.532 1052.16 444.256 1053.34 444.256C1054.53 444.256 1055.61 444.532 1056.58 445.084C1057.56 445.636 1058.34 446.404 1058.9 447.388C1059.48 448.36 1059.77 449.458 1059.77 450.682C1059.77 451.918 1059.48 453.028 1058.9 454.012C1058.34 454.984 1057.56 455.746 1056.58 456.298C1055.6 456.85 1054.52 457.126 1053.34 457.126ZM1053.34 454.876C1054.1 454.876 1054.76 454.708 1055.34 454.372C1055.91 454.024 1056.36 453.532 1056.69 452.896C1057.01 452.26 1057.17 451.522 1057.17 450.682C1057.17 449.842 1057.01 449.11 1056.69 448.486C1056.36 447.85 1055.91 447.364 1055.34 447.028C1054.76 446.692 1054.1 446.524 1053.34 446.524C1052.58 446.524 1051.91 446.692 1051.32 447.028C1050.75 447.364 1050.3 447.85 1049.97 448.486C1049.65 449.11 1049.49 449.842 1049.49 450.682C1049.49 451.522 1049.65 452.26 1049.97 452.896C1050.3 453.532 1050.75 454.024 1051.32 454.372C1051.91 454.708 1052.58 454.876 1053.34 454.876ZM1060.99 452.014C1060.99 450.982 1061.2 450.082 1061.62 449.314C1062.04 448.534 1062.62 447.934 1063.37 447.514C1064.11 447.082 1064.96 446.866 1065.92 446.866C1067.16 446.866 1068.18 447.178 1068.98 447.802C1069.8 448.414 1070.35 449.278 1070.62 450.394H1067.9C1067.76 449.962 1067.51 449.626 1067.17 449.386C1066.83 449.134 1066.41 449.008 1065.91 449.008C1065.19 449.008 1064.62 449.272 1064.2 449.8C1063.78 450.316 1063.57 451.054 1063.57 452.014C1063.57 452.962 1063.78 453.7 1064.2 454.228C1064.62 454.744 1065.19 455.002 1065.91 455.002C1066.93 455.002 1067.59 454.546 1067.9 453.634H1070.62C1070.35 454.714 1069.8 455.572 1068.98 456.208C1068.17 456.844 1067.15 457.162 1065.92 457.162C1064.96 457.162 1064.11 456.952 1063.37 456.532C1062.62 456.1 1062.04 455.5 1061.62 454.732C1061.2 453.952 1060.99 453.046 1060.99 452.014ZM1075.4 449.098V453.922C1075.4 454.258 1075.48 454.504 1075.64 454.66C1075.8 454.804 1076.08 454.876 1076.46 454.876H1077.63V457H1076.05C1073.93 457 1072.86 455.968 1072.86 453.904V449.098H1071.68V447.028H1072.86V444.562H1075.4V447.028H1077.63V449.098H1075.4Z" fill="white"/>
<path d="M1165.74 457H1163.22L1157.51 448.378V457H1154.99V444.418H1157.51L1163.22 453.058V444.418H1165.74V457ZM1172.66 457.162C1171.7 457.162 1170.83 456.952 1170.07 456.532C1169.3 456.1 1168.69 455.494 1168.25 454.714C1167.82 453.934 1167.6 453.034 1167.6 452.014C1167.6 450.994 1167.82 450.094 1168.27 449.314C1168.72 448.534 1169.34 447.934 1170.12 447.514C1170.9 447.082 1171.77 446.866 1172.73 446.866C1173.69 446.866 1174.56 447.082 1175.34 447.514C1176.12 447.934 1176.73 448.534 1177.18 449.314C1177.63 450.094 1177.86 450.994 1177.86 452.014C1177.86 453.034 1177.63 453.934 1177.16 454.714C1176.7 455.494 1176.08 456.1 1175.29 456.532C1174.51 456.952 1173.63 457.162 1172.66 457.162ZM1172.66 454.966C1173.11 454.966 1173.54 454.858 1173.94 454.642C1174.34 454.414 1174.67 454.078 1174.91 453.634C1175.15 453.19 1175.27 452.65 1175.27 452.014C1175.27 451.066 1175.02 450.34 1174.51 449.836C1174.02 449.32 1173.41 449.062 1172.69 449.062C1171.97 449.062 1171.37 449.32 1170.88 449.836C1170.4 450.34 1170.16 451.066 1170.16 452.014C1170.16 452.962 1170.39 453.694 1170.86 454.21C1171.34 454.714 1171.94 454.966 1172.66 454.966ZM1183.87 454.678L1186.39 447.028H1189.07L1185.38 457H1182.32L1178.65 447.028H1181.35L1183.87 454.678Z" fill="white"/>
<path d="M1265.73 444.436C1267.05 444.436 1268.2 444.694 1269.2 445.21C1270.21 445.726 1270.98 446.464 1271.52 447.424C1272.07 448.372 1272.35 449.476 1272.35 450.736C1272.35 451.996 1272.07 453.1 1271.52 454.048C1270.98 454.984 1270.21 455.71 1269.2 456.226C1268.2 456.742 1267.05 457 1265.73 457H1261.33V444.436H1265.73ZM1265.64 454.858C1266.96 454.858 1267.98 454.498 1268.7 453.778C1269.42 453.058 1269.78 452.044 1269.78 450.736C1269.78 449.428 1269.42 448.408 1268.7 447.676C1267.98 446.932 1266.96 446.56 1265.64 446.56H1263.85V454.858H1265.64ZM1283.51 451.798C1283.51 452.158 1283.48 452.482 1283.44 452.77H1276.15C1276.21 453.49 1276.46 454.054 1276.9 454.462C1277.35 454.87 1277.89 455.074 1278.54 455.074C1279.48 455.074 1280.14 454.672 1280.54 453.868H1283.26C1282.97 454.828 1282.42 455.62 1281.6 456.244C1280.78 456.856 1279.78 457.162 1278.59 457.162C1277.63 457.162 1276.77 456.952 1276 456.532C1275.25 456.1 1274.65 455.494 1274.22 454.714C1273.8 453.934 1273.59 453.034 1273.59 452.014C1273.59 450.982 1273.8 450.076 1274.22 449.296C1274.64 448.516 1275.23 447.916 1275.98 447.496C1276.74 447.076 1277.61 446.866 1278.59 446.866C1279.54 446.866 1280.39 447.07 1281.13 447.478C1281.89 447.886 1282.47 448.468 1282.88 449.224C1283.3 449.968 1283.51 450.826 1283.51 451.798ZM1280.9 451.078C1280.89 450.43 1280.65 449.914 1280.2 449.53C1279.74 449.134 1279.18 448.936 1278.52 448.936C1277.9 448.936 1277.37 449.128 1276.94 449.512C1276.52 449.884 1276.26 450.406 1276.16 451.078H1280.9ZM1284.7 452.014C1284.7 450.982 1284.91 450.082 1285.33 449.314C1285.75 448.534 1286.33 447.934 1287.07 447.514C1287.82 447.082 1288.67 446.866 1289.63 446.866C1290.87 446.866 1291.89 447.178 1292.69 447.802C1293.51 448.414 1294.05 449.278 1294.33 450.394H1291.61C1291.47 449.962 1291.22 449.626 1290.87 449.386C1290.54 449.134 1290.12 449.008 1289.61 449.008C1288.89 449.008 1288.32 449.272 1287.9 449.8C1287.48 450.316 1287.27 451.054 1287.27 452.014C1287.27 452.962 1287.48 453.7 1287.9 454.228C1288.32 454.744 1288.89 455.002 1289.61 455.002C1290.63 455.002 1291.3 454.546 1291.61 453.634H1294.33C1294.05 454.714 1293.51 455.572 1292.69 456.208C1291.87 456.844 1290.85 457.162 1289.63 457.162C1288.67 457.162 1287.82 456.952 1287.07 456.532C1286.33 456.1 1285.75 455.5 1285.33 454.732C1284.91 453.952 1284.7 453.046 1284.7 452.014Z" fill="white"/>
<path d="M136.636 444.436V453.256C136.636 454.48 136.282 455.434 135.574 456.118C134.866 456.79 133.918 457.126 132.73 457.126C131.53 457.126 130.558 456.778 129.814 456.082C129.082 455.386 128.716 454.414 128.716 453.166H131.236C131.248 453.706 131.374 454.126 131.614 454.426C131.866 454.726 132.226 454.876 132.694 454.876C133.15 454.876 133.498 454.732 133.738 454.444C133.978 454.156 134.098 453.76 134.098 453.256V444.436H136.636ZM138.927 451.978C138.927 450.97 139.125 450.076 139.521 449.296C139.929 448.516 140.475 447.916 141.159 447.496C141.855 447.076 142.629 446.866 143.481 446.866C144.225 446.866 144.873 447.016 145.425 447.316C145.989 447.616 146.439 447.994 146.775 448.45V447.028H149.313V457H146.775V455.542C146.451 456.01 146.001 456.4 145.425 456.712C144.861 457.012 144.207 457.162 143.463 457.162C142.623 457.162 141.855 456.946 141.159 456.514C140.475 456.082 139.929 455.476 139.521 454.696C139.125 453.904 138.927 452.998 138.927 451.978ZM146.775 452.014C146.775 451.402 146.655 450.88 146.415 450.448C146.175 450.004 145.851 449.668 145.443 449.44C145.035 449.2 144.597 449.08 144.129 449.08C143.661 449.08 143.229 449.194 142.833 449.422C142.437 449.65 142.113 449.986 141.861 450.43C141.621 450.862 141.501 451.378 141.501 451.978C141.501 452.578 141.621 453.106 141.861 453.562C142.113 454.006 142.437 454.348 142.833 454.588C143.241 454.828 143.673 454.948 144.129 454.948C144.597 454.948 145.035 454.834 145.443 454.606C145.851 454.366 146.175 454.03 146.415 453.598C146.655 453.154 146.775 452.626 146.775 452.014ZM157.3 446.884C158.488 446.884 159.448 447.262 160.18 448.018C160.912 448.762 161.278 449.806 161.278 451.15V457H158.758V451.492C158.758 450.7 158.56 450.094 158.164 449.674C157.768 449.242 157.228 449.026 156.544 449.026C155.848 449.026 155.296 449.242 154.888 449.674C154.492 450.094 154.294 450.7 154.294 451.492V457H151.774V447.028H154.294V448.27C154.63 447.838 155.056 447.502 155.572 447.262C156.1 447.01 156.676 446.884 157.3 446.884Z" fill="white"/>
<path d="M50.0147 143.444V141.464L55.9007 133.04H58.8347V141.248H60.4187V143.444H58.8347V146H56.3147V143.444H50.0147ZM56.4767 135.74L52.7867 141.248H56.4767V135.74ZM62.0231 139.268C62.0231 137.192 62.3951 135.566 63.1391 134.39C63.8951 133.214 65.1431 132.626 66.8831 132.626C68.6231 132.626 69.8651 133.214 70.6091 134.39C71.3651 135.566 71.7431 137.192 71.7431 139.268C71.7431 141.356 71.3651 142.994 70.6091 144.182C69.8651 145.37 68.6231 145.964 66.8831 145.964C65.1431 145.964 63.8951 145.37 63.1391 144.182C62.3951 142.994 62.0231 141.356 62.0231 139.268ZM69.2591 139.268C69.2591 138.38 69.1991 137.636 69.0791 137.036C68.9711 136.424 68.7431 135.926 68.3951 135.542C68.0591 135.158 67.5551 134.966 66.8831 134.966C66.2111 134.966 65.7011 135.158 65.3531 135.542C65.0171 135.926 64.7891 136.424 64.6691 137.036C64.5611 137.636 64.5071 138.38 64.5071 139.268C64.5071 140.18 64.5611 140.948 64.6691 141.572C64.7771 142.184 65.0051 142.682 65.3531 143.066C65.7011 143.438 66.2111 143.624 66.8831 143.624C67.5551 143.624 68.0651 143.438 68.4131 143.066C68.7611 142.682 68.9891 142.184 69.0971 141.572C69.2051 140.948 69.2591 140.18 69.2591 139.268ZM73.6598 139.268C73.6598 137.192 74.0318 135.566 74.7758 134.39C75.5318 133.214 76.7798 132.626 78.5198 132.626C80.2598 132.626 81.5018 133.214 82.2458 134.39C83.0018 135.566 83.3798 137.192 83.3798 139.268C83.3798 141.356 83.0018 142.994 82.2458 144.182C81.5018 145.37 80.2598 145.964 78.5198 145.964C76.7798 145.964 75.5318 145.37 74.7758 144.182C74.0318 142.994 73.6598 141.356 73.6598 139.268ZM80.8958 139.268C80.8958 138.38 80.8358 137.636 80.7158 137.036C80.6078 136.424 80.3798 135.926 80.0318 135.542C79.6958 135.158 79.1918 134.966 78.5198 134.966C77.8478 134.966 77.3378 135.158 76.9898 135.542C76.6538 135.926 76.4258 136.424 76.3058 137.036C76.1978 137.636 76.1438 138.38 76.1438 139.268C76.1438 140.18 76.1978 140.948 76.3058 141.572C76.4138 142.184 76.6418 142.682 76.9898 143.066C77.3378 143.438 77.8478 143.624 78.5198 143.624C79.1918 143.624 79.7018 143.438 80.0498 143.066C80.3978 142.682 80.6258 142.184 80.7338 141.572C80.8418 140.948 80.8958 140.18 80.8958 139.268Z" fill="white"/>
<path d="M50.1587 209.334C50.2187 208.134 50.6387 207.21 51.4187 206.562C52.2107 205.902 53.2487 205.572 54.5327 205.572C55.4087 205.572 56.1587 205.728 56.7827 206.04C57.4067 206.34 57.8747 206.754 58.1867 207.282C58.5107 207.798 58.6727 208.386 58.6727 209.046C58.6727 209.802 58.4747 210.444 58.0787 210.972C57.6947 211.488 57.2327 211.836 56.6927 212.016V212.088C57.3887 212.304 57.9287 212.688 58.3127 213.24C58.7087 213.792 58.9067 214.5 58.9067 215.364C58.9067 216.084 58.7387 216.726 58.4027 217.29C58.0787 217.854 57.5927 218.298 56.9447 218.622C56.3087 218.934 55.5407 219.09 54.6407 219.09C53.2847 219.09 52.1807 218.748 51.3287 218.064C50.4767 217.38 50.0267 216.372 49.9787 215.04H52.4267C52.4507 215.628 52.6487 216.102 53.0207 216.462C53.4047 216.81 53.9267 216.984 54.5867 216.984C55.1987 216.984 55.6667 216.816 55.9907 216.48C56.3267 216.132 56.4947 215.688 56.4947 215.148C56.4947 214.428 56.2667 213.912 55.8107 213.6C55.3547 213.288 54.6467 213.132 53.6867 213.132H53.1647V211.062H53.6867C55.3907 211.062 56.2427 210.492 56.2427 209.352C56.2427 208.836 56.0867 208.434 55.7747 208.146C55.4747 207.858 55.0367 207.714 54.4607 207.714C53.8967 207.714 53.4587 207.87 53.1467 208.182C52.8467 208.482 52.6727 208.866 52.6247 209.334H50.1587ZM60.8981 212.268C60.8981 210.192 61.2701 208.566 62.0141 207.39C62.7701 206.214 64.0181 205.626 65.7581 205.626C67.4981 205.626 68.7401 206.214 69.4841 207.39C70.2401 208.566 70.6181 210.192 70.6181 212.268C70.6181 214.356 70.2401 215.994 69.4841 217.182C68.7401 218.37 67.4981 218.964 65.7581 218.964C64.0181 218.964 62.7701 218.37 62.0141 217.182C61.2701 215.994 60.8981 214.356 60.8981 212.268ZM68.1341 212.268C68.1341 211.38 68.0741 210.636 67.9541 210.036C67.8461 209.424 67.6181 208.926 67.2701 208.542C66.9341 208.158 66.4301 207.966 65.7581 207.966C65.0861 207.966 64.5761 208.158 64.2281 208.542C63.8921 208.926 63.6641 209.424 63.5441 210.036C63.4361 210.636 63.3821 211.38 63.3821 212.268C63.3821 213.18 63.4361 213.948 63.5441 214.572C63.6521 215.184 63.8801 215.682 64.2281 216.066C64.5761 216.438 65.0861 216.624 65.7581 216.624C66.4301 216.624 66.9401 216.438 67.2881 216.066C67.6361 215.682 67.8641 215.184 67.9721 214.572C68.0801 213.948 68.1341 213.18 68.1341 212.268ZM72.5348 212.268C72.5348 210.192 72.9068 208.566 73.6508 207.39C74.4068 206.214 75.6548 205.626 77.3948 205.626C79.1348 205.626 80.3768 206.214 81.1208 207.39C81.8768 208.566 82.2548 210.192 82.2548 212.268C82.2548 214.356 81.8768 215.994 81.1208 217.182C80.3768 218.37 79.1348 218.964 77.3948 218.964C75.6548 218.964 74.4068 218.37 73.6508 217.182C72.9068 215.994 72.5348 214.356 72.5348 212.268ZM79.7708 212.268C79.7708 211.38 79.7108 210.636 79.5908 210.036C79.4828 209.424 79.2548 208.926 78.9068 208.542C78.5708 208.158 78.0668 207.966 77.3948 207.966C76.7228 207.966 76.2128 208.158 75.8648 208.542C75.5288 208.926 75.3008 209.424 75.1808 210.036C75.0728 210.636 75.0188 211.38 75.0188 212.268C75.0188 213.18 75.0728 213.948 75.1808 214.572C75.2888 215.184 75.5168 215.682 75.8648 216.066C76.2128 216.438 76.7228 216.624 77.3948 216.624C78.0668 216.624 78.5768 216.438 78.9248 216.066C79.2728 215.682 79.5008 215.184 79.6088 214.572C79.7168 213.948 79.7708 213.18 79.7708 212.268Z" fill="white"/>
<path d="M50.9147 290.156C52.0667 289.196 52.9847 288.398 53.6687 287.762C54.3527 287.114 54.9227 286.442 55.3787 285.746C55.8347 285.05 56.0627 284.366 56.0627 283.694C56.0627 283.082 55.9187 282.602 55.6307 282.254C55.3427 281.906 54.8987 281.732 54.2987 281.732C53.6987 281.732 53.2367 281.936 52.9127 282.344C52.5887 282.74 52.4207 283.286 52.4087 283.982H49.9607C50.0087 282.542 50.4347 281.45 51.2387 280.706C52.0547 279.962 53.0867 279.59 54.3347 279.59C55.7027 279.59 56.7527 279.956 57.4847 280.688C58.2167 281.408 58.5827 282.362 58.5827 283.55C58.5827 284.486 58.3307 285.38 57.8267 286.232C57.3227 287.084 56.7467 287.828 56.0987 288.464C55.4507 289.088 54.6047 289.844 53.5607 290.732H58.8707V292.82H49.9787V290.948L50.9147 290.156ZM60.4586 286.268C60.4586 284.192 60.8306 282.566 61.5746 281.39C62.3306 280.214 63.5786 279.626 65.3186 279.626C67.0586 279.626 68.3006 280.214 69.0446 281.39C69.8006 282.566 70.1786 284.192 70.1786 286.268C70.1786 288.356 69.8006 289.994 69.0446 291.182C68.3006 292.37 67.0586 292.964 65.3186 292.964C63.5786 292.964 62.3306 292.37 61.5746 291.182C60.8306 289.994 60.4586 288.356 60.4586 286.268ZM67.6946 286.268C67.6946 285.38 67.6346 284.636 67.5146 284.036C67.4066 283.424 67.1786 282.926 66.8306 282.542C66.4946 282.158 65.9906 281.966 65.3186 281.966C64.6466 281.966 64.1366 282.158 63.7886 282.542C63.4526 282.926 63.2246 283.424 63.1046 284.036C62.9966 284.636 62.9426 285.38 62.9426 286.268C62.9426 287.18 62.9966 287.948 63.1046 288.572C63.2126 289.184 63.4406 289.682 63.7886 290.066C64.1366 290.438 64.6466 290.624 65.3186 290.624C65.9906 290.624 66.5006 290.438 66.8486 290.066C67.1966 289.682 67.4246 289.184 67.5326 288.572C67.6406 287.948 67.6946 287.18 67.6946 286.268ZM72.0954 286.268C72.0954 284.192 72.4674 282.566 73.2114 281.39C73.9674 280.214 75.2154 279.626 76.9554 279.626C78.6954 279.626 79.9374 280.214 80.6814 281.39C81.4374 282.566 81.8154 284.192 81.8154 286.268C81.8154 288.356 81.4374 289.994 80.6814 291.182C79.9374 292.37 78.6954 292.964 76.9554 292.964C75.2154 292.964 73.9674 292.37 73.2114 291.182C72.4674 289.994 72.0954 288.356 72.0954 286.268ZM79.3314 286.268C79.3314 285.38 79.2714 284.636 79.1514 284.036C79.0434 283.424 78.8154 282.926 78.4674 282.542C78.1314 282.158 77.6274 281.966 76.9554 281.966C76.2834 281.966 75.7734 282.158 75.4254 282.542C75.0894 282.926 74.8614 283.424 74.7414 284.036C74.6334 284.636 74.5794 285.38 74.5794 286.268C74.5794 287.18 74.6334 287.948 74.7414 288.572C74.8494 289.184 75.0774 289.682 75.4254 290.066C75.7734 290.438 76.2834 290.624 76.9554 290.624C77.6274 290.624 78.1374 290.438 78.4854 290.066C78.8334 289.682 79.0614 289.184 79.1694 288.572C79.2774 287.948 79.3314 287.18 79.3314 286.268Z" fill="white"/>
<path d="M49.8167 356.2V353.878H54.1547V367H51.5627V356.2H49.8167ZM56.6442 360.268C56.6442 358.192 57.0162 356.566 57.7602 355.39C58.5162 354.214 59.7642 353.626 61.5042 353.626C63.2442 353.626 64.4862 354.214 65.2302 355.39C65.9862 356.566 66.3642 358.192 66.3642 360.268C66.3642 362.356 65.9862 363.994 65.2302 365.182C64.4862 366.37 63.2442 366.964 61.5042 366.964C59.7642 366.964 58.5162 366.37 57.7602 365.182C57.0162 363.994 56.6442 362.356 56.6442 360.268ZM63.8802 360.268C63.8802 359.38 63.8202 358.636 63.7002 358.036C63.5922 357.424 63.3642 356.926 63.0162 356.542C62.6802 356.158 62.1762 355.966 61.5042 355.966C60.8322 355.966 60.3222 356.158 59.9742 356.542C59.6382 356.926 59.4102 357.424 59.2902 358.036C59.1822 358.636 59.1282 359.38 59.1282 360.268C59.1282 361.18 59.1822 361.948 59.2902 362.572C59.3982 363.184 59.6262 363.682 59.9742 364.066C60.3222 364.438 60.8322 364.624 61.5042 364.624C62.1762 364.624 62.6862 364.438 63.0342 364.066C63.3822 363.682 63.6102 363.184 63.7182 362.572C63.8262 361.948 63.8802 361.18 63.8802 360.268ZM68.2809 360.268C68.2809 358.192 68.6529 356.566 69.3969 355.39C70.1529 354.214 71.4009 353.626 73.1409 353.626C74.8809 353.626 76.1229 354.214 76.8669 355.39C77.6229 356.566 78.0009 358.192 78.0009 360.268C78.0009 362.356 77.6229 363.994 76.8669 365.182C76.1229 366.37 74.8809 366.964 73.1409 366.964C71.4009 366.964 70.1529 366.37 69.3969 365.182C68.6529 363.994 68.2809 362.356 68.2809 360.268ZM75.5169 360.268C75.5169 359.38 75.4569 358.636 75.3369 358.036C75.2289 357.424 75.0009 356.926 74.6529 356.542C74.3169 356.158 73.8129 355.966 73.1409 355.966C72.4689 355.966 71.9589 356.158 71.6109 356.542C71.2749 356.926 71.0469 357.424 70.9269 358.036C70.8189 358.636 70.7649 359.38 70.7649 360.268C70.7649 361.18 70.8189 361.948 70.9269 362.572C71.0349 363.184 71.2629 363.682 71.6109 364.066C71.9589 364.438 72.4689 364.624 73.1409 364.624C73.8129 364.624 74.3229 364.438 74.6709 364.066C75.0189 363.682 75.2469 363.184 75.3549 362.572C75.4629 361.948 75.5169 361.18 75.5169 360.268Z" fill="white"/>
<path d="M77.5658 433.268C77.5658 431.192 77.9378 429.566 78.6818 428.39C79.4378 427.214 80.6858 426.626 82.4258 426.626C84.1658 426.626 85.4078 427.214 86.1518 428.39C86.9078 429.566 87.2858 431.192 87.2858 433.268C87.2858 435.356 86.9078 436.994 86.1518 438.182C85.4078 439.37 84.1658 439.964 82.4258 439.964C80.6858 439.964 79.4378 439.37 78.6818 438.182C77.9378 436.994 77.5658 435.356 77.5658 433.268ZM84.8018 433.268C84.8018 432.38 84.7418 431.636 84.6218 431.036C84.5138 430.424 84.2858 429.926 83.9378 429.542C83.6018 429.158 83.0978 428.966 82.4258 428.966C81.7538 428.966 81.2438 429.158 80.8958 429.542C80.5598 429.926 80.3318 430.424 80.2118 431.036C80.1038 431.636 80.0498 432.38 80.0498 433.268C80.0498 434.18 80.1038 434.948 80.2118 435.572C80.3198 436.184 80.5478 436.682 80.8958 437.066C81.2438 437.438 81.7538 437.624 82.4258 437.624C83.0978 437.624 83.6078 437.438 83.9558 437.066C84.3038 436.682 84.5318 436.184 84.6398 435.572C84.7478 434.948 84.8018 434.18 84.8018 433.268Z" fill="white"/>
<g filter="url(#filter0_d_27_106)">
<path d="M133.785 321.5C219.544 290.5 241.842 215.5 266.998 195C292.154 174.5 316.738 195 316.738 195C316.738 195 305.876 223.5 348.184 223.5C390.492 223.5 407.072 195 437.945 215.5C468.819 236 447.093 189.5 464.817 182C482.54 174.5 477.966 223.5 483.684 245.5C489.401 267.5 547.146 288 576.876 265C606.606 242 596.314 265 640.338 265C684.361 265 660.348 221 684.361 208C708.374 195 711.038 243.201 736.388 257C810.716 297.461 886.753 265 949.072 195C1011.39 125 982.804 133 990.236 164C997.669 195 1120.88 383.97 1130.31 310C1143.07 209.887 1165.76 333.5 1186.91 321.5C1208.07 309.5 1186.91 304 1186.91 271.5C1186.91 239 1222.5 257.732 1242.94 245.5C1242.94 245.5 1273.5 231.277 1284.11 215.5C1289.09 208.091 1291.18 203.4 1293.25 195" stroke="#E95838"/>
</g>
<path d="M139.502 268.5L219.544 306C219.544 306 255.398 292.501 266.998 275C277.546 259.086 275.574 228.5 275.574 228.5C275.574 228.5 322.456 150 334.462 168C346.468 186 409.93 268.5 409.93 268.5L493.975 249.5L548.861 212L665.494 249.5L783.842 338.5L804.424 228.5L904.477 130.5C930.967 133.167 986.349 139.5 995.954 143.5C1005.56 147.5 1026.64 201.833 1035.97 228.5L1017.11 294.5L1158.9 327L1180.62 268.5L1238.37 228.5L1265.24 161.5L1291.54 178.5" stroke="#CFF468"/>
<defs>
<filter id="filter0_d_27_106" x="129.615" y="140.624" width="1168.12" height="194.914" filterUnits="userSpaceOnUse" color-interpolation-filters="sRGB">
<feFlood flood-opacity="0" result="BackgroundImageFix"/>
<feColorMatrix in="SourceAlpha" type="matrix" values="0 0 0 0 0 0 0 0 0 0 0 0 0 0 0 0 0 0 127 0" result="hardAlpha"/>
<feOffset dy="4"/>
<feGaussianBlur stdDeviation="2"/>
<feComposite in2="hardAlpha" operator="out"/>
<feColorMatrix type="matrix" values="0 0 0 0 0 0 0 0 0 0 0 0 0 0 0 0 0 0 0.25 0"/>
<feBlend mode="normal" in2="BackgroundImageFix" result="effect1_dropShadow_27_106"/>
<feBlend mode="normal" in="SourceGraphic" in2="effect1_dropShadow_27_106" result="shape"/>
</filter>
</defs>
</svg>
