<svg width="380" height="601" viewBox="0 0 380 601" fill="none" xmlns="http://www.w3.org/2000/svg">
<rect width="380" height="601" rx="10" fill="#1E1E1E"/>
<path d="M30.084 43.154C28.28 43.154 26.7987 42.7287 25.64 41.878C24.4813 41.0127 23.858 39.7807 23.77 38.182H28.368C28.412 38.7247 28.5733 39.1207 28.852 39.37C29.1307 39.6193 29.49 39.744 29.93 39.744C30.326 39.744 30.6487 39.6487 30.898 39.458C31.162 39.2527 31.294 38.974 31.294 38.622C31.294 38.1673 31.0813 37.8153 30.656 37.566C30.2307 37.3167 29.5413 37.038 28.588 36.73C27.576 36.3927 26.7547 36.07 26.124 35.762C25.508 35.4393 24.9653 34.9773 24.496 34.376C24.0413 33.76 23.814 32.9607 23.814 31.978C23.814 30.9807 24.0633 30.13 24.562 29.426C25.0607 28.7073 25.75 28.1647 26.63 27.798C27.51 27.4313 28.5073 27.248 29.622 27.248C31.426 27.248 32.8633 27.6733 33.934 28.524C35.0193 29.36 35.5987 30.5407 35.672 32.066H30.986C30.9713 31.5967 30.8247 31.2447 30.546 31.01C30.282 30.7753 29.9373 30.658 29.512 30.658C29.1893 30.658 28.9253 30.7533 28.72 30.944C28.5147 31.1347 28.412 31.406 28.412 31.758C28.412 32.0513 28.522 32.308 28.742 32.528C28.9767 32.7333 29.2627 32.9167 29.6 33.078C29.9373 33.2247 30.436 33.4153 31.096 33.65C32.0787 33.9873 32.8853 34.3247 33.516 34.662C34.1613 34.9847 34.7113 35.4467 35.166 36.048C35.6353 36.6347 35.87 37.3827 35.87 38.292C35.87 39.216 35.6353 40.0447 35.166 40.778C34.7113 41.5113 34.044 42.0907 33.164 42.516C32.2987 42.9413 31.272 43.154 30.084 43.154ZM37.1706 36.818C37.1706 35.542 37.3979 34.4273 37.8526 33.474C38.3219 32.5207 38.9526 31.7873 39.7446 31.274C40.5512 30.7607 41.4459 30.504 42.4286 30.504C43.2792 30.504 44.0126 30.6727 44.6286 31.01C45.2446 31.3473 45.7212 31.802 46.0586 32.374V30.658H50.3706V43H46.0586V41.284C45.7212 41.856 45.2372 42.3107 44.6066 42.648C43.9906 42.9853 43.2646 43.154 42.4286 43.154C41.4459 43.154 40.5512 42.8973 39.7446 42.384C38.9526 41.8707 38.3219 41.1373 37.8526 40.184C37.3979 39.216 37.1706 38.094 37.1706 36.818ZM46.0586 36.818C46.0586 36.026 45.8386 35.4027 45.3986 34.948C44.9732 34.4933 44.4452 34.266 43.8146 34.266C43.1692 34.266 42.6339 34.4933 42.2086 34.948C41.7832 35.388 41.5706 36.0113 41.5706 36.818C41.5706 37.61 41.7832 38.2407 42.2086 38.71C42.6339 39.1647 43.1692 39.392 43.8146 39.392C44.4452 39.392 44.9732 39.1647 45.3986 38.71C45.8386 38.2553 46.0586 37.6247 46.0586 36.818ZM57.1397 26.72V43H52.8277V26.72H57.1397ZM71.3873 36.686C71.3873 37.0233 71.3653 37.3607 71.3213 37.698H63.1593C63.2033 38.3727 63.3866 38.8787 63.7093 39.216C64.0466 39.5387 64.4719 39.7 64.9853 39.7C65.7039 39.7 66.2173 39.3773 66.5253 38.732H71.1233C70.9326 39.5827 70.5586 40.3453 70.0013 41.02C69.4586 41.68 68.7693 42.2007 67.9333 42.582C67.0973 42.9633 66.1733 43.154 65.1613 43.154C63.9439 43.154 62.8586 42.8973 61.9053 42.384C60.9666 41.8707 60.2259 41.1373 59.6833 40.184C59.1553 39.2307 58.8913 38.1087 58.8913 36.818C58.8913 35.5273 59.1553 34.4127 59.6833 33.474C60.2113 32.5207 60.9446 31.7873 61.8833 31.274C62.8366 30.7607 63.9293 30.504 65.1613 30.504C66.3786 30.504 67.4566 30.7533 68.3953 31.252C69.3339 31.7507 70.0673 32.4693 70.5953 33.408C71.1233 34.332 71.3873 35.4247 71.3873 36.686ZM66.9873 35.608C66.9873 35.08 66.8113 34.6693 66.4593 34.376C66.1073 34.068 65.6673 33.914 65.1393 33.914C64.6113 33.914 64.1786 34.0607 63.8413 34.354C63.5039 34.6327 63.2839 35.0507 63.1813 35.608H66.9873ZM78.4099 43.154C77.2953 43.154 76.2979 42.9707 75.4179 42.604C74.5526 42.2227 73.8633 41.7093 73.3499 41.064C72.8513 40.404 72.5726 39.6633 72.5139 38.842H76.6939C76.7526 39.238 76.9359 39.546 77.2439 39.766C77.5519 39.986 77.9333 40.096 78.3879 40.096C78.7399 40.096 79.0186 40.0227 79.2239 39.876C79.4293 39.7293 79.5319 39.5387 79.5319 39.304C79.5319 38.996 79.3633 38.7687 79.0259 38.622C78.6886 38.4753 78.1313 38.314 77.3539 38.138C76.4739 37.962 75.7406 37.764 75.1539 37.544C74.5673 37.324 74.0539 36.9647 73.6139 36.466C73.1886 35.9673 72.9759 35.2927 72.9759 34.442C72.9759 33.7087 73.1739 33.0487 73.5699 32.462C73.9659 31.8607 74.5453 31.384 75.3079 31.032C76.0853 30.68 77.0166 30.504 78.1019 30.504C79.7153 30.504 80.9839 30.9 81.9079 31.692C82.8319 32.484 83.3673 33.5253 83.5139 34.816H79.6199C79.5466 34.42 79.3706 34.1193 79.0919 33.914C78.8279 33.694 78.4686 33.584 78.0139 33.584C77.6619 33.584 77.3906 33.65 77.1999 33.782C77.0239 33.914 76.9359 34.0973 76.9359 34.332C76.9359 34.6253 77.1046 34.8527 77.4419 35.014C77.7793 35.1607 78.3219 35.3147 79.0699 35.476C79.9646 35.6667 80.7053 35.8793 81.2919 36.114C81.8933 36.3487 82.4139 36.73 82.8539 37.258C83.3086 37.7713 83.5359 38.4753 83.5359 39.37C83.5359 40.0887 83.3233 40.734 82.8979 41.306C82.4873 41.878 81.8933 42.3327 81.1159 42.67C80.3533 42.9927 79.4513 43.154 78.4099 43.154ZM94.1788 32.374C94.5161 31.7873 94.9928 31.3327 95.6088 31.01C96.2248 30.6727 96.9508 30.504 97.7868 30.504C98.7694 30.504 99.6568 30.7607 100.449 31.274C101.255 31.7873 101.886 32.5207 102.341 33.474C102.81 34.4273 103.045 35.542 103.045 36.818C103.045 38.094 102.81 39.216 102.341 40.184C101.886 41.1373 101.255 41.8707 100.449 42.384C99.6568 42.8973 98.7694 43.154 97.7868 43.154C96.9508 43.154 96.2248 42.9927 95.6088 42.67C94.9928 42.3327 94.5161 41.8707 94.1788 41.284V43H89.8668V26.72H94.1788V32.374ZM98.6668 36.818C98.6668 36.0113 98.4468 35.388 98.0068 34.948C97.5814 34.4933 97.0534 34.266 96.4228 34.266C95.7921 34.266 95.2568 34.4933 94.8168 34.948C94.3914 35.4027 94.1788 36.026 94.1788 36.818C94.1788 37.6247 94.3914 38.2553 94.8168 38.71C95.2568 39.1647 95.7921 39.392 96.4228 39.392C97.0534 39.392 97.5814 39.1647 98.0068 38.71C98.4468 38.2407 98.6668 37.61 98.6668 36.818ZM118.108 30.658L110.276 48.874H105.59L108.538 42.472L103.478 30.658H108.274L110.87 37.654L113.378 30.658H118.108ZM122.919 35.212C122.919 33.6867 123.234 32.33 123.865 31.142C124.51 29.9393 125.42 29.008 126.593 28.348C127.766 27.6733 129.116 27.336 130.641 27.336C132.577 27.336 134.205 27.8567 135.525 28.898C136.845 29.9247 137.696 31.3253 138.077 33.1H133.435C133.156 32.5133 132.768 32.066 132.269 31.758C131.785 31.45 131.22 31.296 130.575 31.296C129.578 31.296 128.778 31.6553 128.177 32.374C127.59 33.078 127.297 34.024 127.297 35.212C127.297 36.4147 127.59 37.3753 128.177 38.094C128.778 38.798 129.578 39.15 130.575 39.15C131.22 39.15 131.785 38.996 132.269 38.688C132.768 38.38 133.156 37.9327 133.435 37.346H138.077C137.696 39.1207 136.845 40.5287 135.525 41.57C134.205 42.5967 132.577 43.11 130.641 43.11C129.116 43.11 127.766 42.78 126.593 42.12C125.42 41.4453 124.51 40.514 123.865 39.326C123.234 38.1233 122.919 36.752 122.919 35.212ZM139.415 36.818C139.415 35.542 139.642 34.4273 140.097 33.474C140.566 32.5207 141.197 31.7873 141.989 31.274C142.795 30.7607 143.69 30.504 144.673 30.504C145.523 30.504 146.257 30.6727 146.873 31.01C147.489 31.3473 147.965 31.802 148.303 32.374V30.658H152.615V43H148.303V41.284C147.965 41.856 147.481 42.3107 146.851 42.648C146.235 42.9853 145.509 43.154 144.673 43.154C143.69 43.154 142.795 42.8973 141.989 42.384C141.197 41.8707 140.566 41.1373 140.097 40.184C139.642 39.216 139.415 38.094 139.415 36.818ZM148.303 36.818C148.303 36.026 148.083 35.4027 147.643 34.948C147.217 34.4933 146.689 34.266 146.059 34.266C145.413 34.266 144.878 34.4933 144.453 34.948C144.027 35.388 143.815 36.0113 143.815 36.818C143.815 37.61 144.027 38.2407 144.453 38.71C144.878 39.1647 145.413 39.392 146.059 39.392C146.689 39.392 147.217 39.1647 147.643 38.71C148.083 38.2553 148.303 37.6247 148.303 36.818ZM162.354 39.326V43H160.484C157.331 43 155.754 41.438 155.754 38.314V34.244H154.236V30.658H155.754V27.666H160.088V30.658H162.332V34.244H160.088V38.38C160.088 38.7173 160.161 38.9593 160.308 39.106C160.469 39.2527 160.733 39.326 161.1 39.326H162.354ZM176.124 36.686C176.124 37.0233 176.102 37.3607 176.058 37.698H167.896C167.94 38.3727 168.123 38.8787 168.446 39.216C168.783 39.5387 169.208 39.7 169.722 39.7C170.44 39.7 170.954 39.3773 171.262 38.732H175.86C175.669 39.5827 175.295 40.3453 174.738 41.02C174.195 41.68 173.506 42.2007 172.67 42.582C171.834 42.9633 170.91 43.154 169.898 43.154C168.68 43.154 167.595 42.8973 166.642 42.384C165.703 41.8707 164.962 41.1373 164.42 40.184C163.892 39.2307 163.628 38.1087 163.628 36.818C163.628 35.5273 163.892 34.4127 164.42 33.474C164.948 32.5207 165.681 31.7873 166.62 31.274C167.573 30.7607 168.666 30.504 169.898 30.504C171.115 30.504 172.193 30.7533 173.132 31.252C174.07 31.7507 174.804 32.4693 175.332 33.408C175.86 34.332 176.124 35.4247 176.124 36.686ZM171.724 35.608C171.724 35.08 171.548 34.6693 171.196 34.376C170.844 34.068 170.404 33.914 169.876 33.914C169.348 33.914 168.915 34.0607 168.578 34.354C168.24 34.6327 168.02 35.0507 167.918 35.608H171.724ZM182.442 30.504C183.278 30.504 184.004 30.6727 184.62 31.01C185.251 31.3473 185.735 31.802 186.072 32.374V30.658H190.384V42.868C190.384 44.0267 190.164 45.068 189.724 45.992C189.284 46.9307 188.595 47.6787 187.656 48.236C186.732 48.7933 185.559 49.072 184.136 49.072C182.23 49.072 180.704 48.6247 179.56 47.73C178.416 46.8353 177.764 45.618 177.602 44.078H181.848C181.936 44.474 182.156 44.782 182.508 45.002C182.86 45.222 183.315 45.332 183.872 45.332C185.339 45.332 186.072 44.5107 186.072 42.868V41.284C185.735 41.856 185.251 42.3107 184.62 42.648C184.004 42.9853 183.278 43.154 182.442 43.154C181.46 43.154 180.565 42.8973 179.758 42.384C178.966 41.8707 178.336 41.1373 177.866 40.184C177.412 39.216 177.184 38.094 177.184 36.818C177.184 35.542 177.412 34.4273 177.866 33.474C178.336 32.5207 178.966 31.7873 179.758 31.274C180.565 30.7607 181.46 30.504 182.442 30.504ZM186.072 36.818C186.072 36.026 185.852 35.4027 185.412 34.948C184.987 34.4933 184.459 34.266 183.828 34.266C183.183 34.266 182.648 34.4933 182.222 34.948C181.797 35.388 181.584 36.0113 181.584 36.818C181.584 37.61 181.797 38.2407 182.222 38.71C182.648 39.1647 183.183 39.392 183.828 39.392C184.459 39.392 184.987 39.1647 185.412 38.71C185.852 38.2553 186.072 37.6247 186.072 36.818ZM198.583 43.154C197.351 43.154 196.244 42.8973 195.261 42.384C194.293 41.8707 193.531 41.1373 192.973 40.184C192.416 39.2307 192.137 38.1087 192.137 36.818C192.137 35.542 192.416 34.4273 192.973 33.474C193.545 32.5207 194.315 31.7873 195.283 31.274C196.266 30.7607 197.373 30.504 198.605 30.504C199.837 30.504 200.937 30.7607 201.905 31.274C202.888 31.7873 203.658 32.5207 204.215 33.474C204.787 34.4273 205.073 35.542 205.073 36.818C205.073 38.094 204.787 39.216 204.215 40.184C203.658 41.1373 202.888 41.8707 201.905 42.384C200.923 42.8973 199.815 43.154 198.583 43.154ZM198.583 39.414C199.185 39.414 199.683 39.194 200.079 38.754C200.49 38.2993 200.695 37.654 200.695 36.818C200.695 35.982 200.49 35.344 200.079 34.904C199.683 34.464 199.192 34.244 198.605 34.244C198.019 34.244 197.527 34.464 197.131 34.904C196.735 35.344 196.537 35.982 196.537 36.818C196.537 37.6687 196.728 38.314 197.109 38.754C197.491 39.194 197.982 39.414 198.583 39.414ZM211.14 32.836C211.624 32.132 212.21 31.5747 212.9 31.164C213.589 30.7533 214.33 30.548 215.122 30.548V35.146H213.912C212.973 35.146 212.276 35.3293 211.822 35.696C211.367 36.0627 211.14 36.7007 211.14 37.61V43H206.828V30.658H211.14V32.836ZM229.956 30.658L222.124 48.874H217.438L220.386 42.472L215.326 30.658H220.122L222.718 37.654L225.226 30.658H229.956Z" fill="white"/>
<path d="M59.762 495.47V498.62H63.992V500.618H59.762V503.948H64.532V506H57.242V493.418H64.532V495.47H59.762ZM69.3421 492.68V506H66.8221V492.68H69.3421ZM81.1018 500.798C81.1018 501.158 81.0778 501.482 81.0298 501.77H73.7398C73.7998 502.49 74.0518 503.054 74.4958 503.462C74.9398 503.87 75.4858 504.074 76.1338 504.074C77.0698 504.074 77.7358 503.672 78.1318 502.868H80.8498C80.5618 503.828 80.0098 504.62 79.1938 505.244C78.3778 505.856 77.3758 506.162 76.1878 506.162C75.2278 506.162 74.3638 505.952 73.5958 505.532C72.8398 505.1 72.2458 504.494 71.8138 503.714C71.3938 502.934 71.1838 502.034 71.1838 501.014C71.1838 499.982 71.3938 499.076 71.8138 498.296C72.2338 497.516 72.8218 496.916 73.5778 496.496C74.3338 496.076 75.2038 495.866 76.1878 495.866C77.1358 495.866 77.9818 496.07 78.7258 496.478C79.4818 496.886 80.0638 497.468 80.4718 498.224C80.8918 498.968 81.1018 499.826 81.1018 500.798ZM78.4918 500.078C78.4798 499.43 78.2458 498.914 77.7898 498.53C77.3338 498.134 76.7758 497.936 76.1158 497.936C75.4918 497.936 74.9638 498.128 74.5318 498.512C74.1118 498.884 73.8538 499.406 73.7578 500.078H78.4918ZM82.2932 501.014C82.2932 499.982 82.5032 499.082 82.9232 498.314C83.3432 497.534 83.9252 496.934 84.6692 496.514C85.4132 496.082 86.2652 495.866 87.2252 495.866C88.4612 495.866 89.4812 496.178 90.2852 496.802C91.1012 497.414 91.6472 498.278 91.9232 499.394H89.2052C89.0612 498.962 88.8152 498.626 88.4672 498.386C88.1312 498.134 87.7112 498.008 87.2072 498.008C86.4872 498.008 85.9172 498.272 85.4972 498.8C85.0772 499.316 84.8672 500.054 84.8672 501.014C84.8672 501.962 85.0772 502.7 85.4972 503.228C85.9172 503.744 86.4872 504.002 87.2072 504.002C88.2272 504.002 88.8932 503.546 89.2052 502.634H91.9232C91.6472 503.714 91.1012 504.572 90.2852 505.208C89.4692 505.844 88.4492 506.162 87.2252 506.162C86.2652 506.162 85.4132 505.952 84.6692 505.532C83.9252 505.1 83.3432 504.5 82.9232 503.732C82.5032 502.952 82.2932 502.046 82.2932 501.014ZM96.7033 498.098V502.922C96.7033 503.258 96.7813 503.504 96.9373 503.66C97.1053 503.804 97.3813 503.876 97.7653 503.876H98.9353V506H97.3513C95.2273 506 94.1653 504.968 94.1653 502.904V498.098H92.9773V496.028H94.1653V493.562H96.7033V496.028H98.9353V498.098H96.7033ZM103.268 497.576C103.592 497.048 104.012 496.634 104.528 496.334C105.056 496.034 105.656 495.884 106.328 495.884V498.53H105.662C104.87 498.53 104.27 498.716 103.862 499.088C103.466 499.46 103.268 500.108 103.268 501.032V506H100.748V496.028H103.268V497.576ZM112.453 506.162C111.493 506.162 110.629 505.952 109.861 505.532C109.093 505.1 108.487 504.494 108.043 503.714C107.611 502.934 107.395 502.034 107.395 501.014C107.395 499.994 107.617 499.094 108.061 498.314C108.517 497.534 109.135 496.934 109.915 496.514C110.695 496.082 111.565 495.866 112.525 495.866C113.485 495.866 114.355 496.082 115.135 496.514C115.915 496.934 116.527 497.534 116.971 498.314C117.427 499.094 117.655 499.994 117.655 501.014C117.655 502.034 117.421 502.934 116.953 503.714C116.497 504.494 115.873 505.1 115.081 505.532C114.301 505.952 113.425 506.162 112.453 506.162ZM112.453 503.966C112.909 503.966 113.335 503.858 113.731 503.642C114.139 503.414 114.463 503.078 114.703 502.634C114.943 502.19 115.063 501.65 115.063 501.014C115.063 500.066 114.811 499.34 114.307 498.836C113.815 498.32 113.209 498.062 112.489 498.062C111.769 498.062 111.163 498.32 110.671 498.836C110.191 499.34 109.951 500.066 109.951 501.014C109.951 501.962 110.185 502.694 110.653 503.21C111.133 503.714 111.733 503.966 112.453 503.966ZM125.03 495.884C126.218 495.884 127.178 496.262 127.91 497.018C128.642 497.762 129.008 498.806 129.008 500.15V506H126.488V500.492C126.488 499.7 126.29 499.094 125.894 498.674C125.498 498.242 124.958 498.026 124.274 498.026C123.578 498.026 123.026 498.242 122.618 498.674C122.222 499.094 122.024 499.7 122.024 500.492V506H119.504V496.028H122.024V497.27C122.36 496.838 122.786 496.502 123.302 496.262C123.83 496.01 124.406 495.884 125.03 495.884ZM132.682 494.84C132.238 494.84 131.866 494.702 131.566 494.426C131.278 494.138 131.134 493.784 131.134 493.364C131.134 492.944 131.278 492.596 131.566 492.32C131.866 492.032 132.238 491.888 132.682 491.888C133.126 491.888 133.492 492.032 133.78 492.32C134.08 492.596 134.23 492.944 134.23 493.364C134.23 493.784 134.08 494.138 133.78 494.426C133.492 494.702 133.126 494.84 132.682 494.84ZM133.924 496.028V506H131.404V496.028H133.924ZM135.766 501.014C135.766 499.982 135.976 499.082 136.396 498.314C136.816 497.534 137.398 496.934 138.142 496.514C138.886 496.082 139.738 495.866 140.698 495.866C141.934 495.866 142.954 496.178 143.758 496.802C144.574 497.414 145.12 498.278 145.396 499.394H142.678C142.534 498.962 142.288 498.626 141.94 498.386C141.604 498.134 141.184 498.008 140.68 498.008C139.96 498.008 139.39 498.272 138.97 498.8C138.55 499.316 138.34 500.054 138.34 501.014C138.34 501.962 138.55 502.7 138.97 503.228C139.39 503.744 139.96 504.002 140.68 504.002C141.7 504.002 142.366 503.546 142.678 502.634H145.396C145.12 503.714 144.574 504.572 143.758 505.208C142.942 505.844 141.922 506.162 140.698 506.162C139.738 506.162 138.886 505.952 138.142 505.532C137.398 505.1 136.816 504.5 136.396 503.732C135.976 502.952 135.766 502.046 135.766 501.014ZM151.058 506.162C150.242 506.162 149.51 506.018 148.862 505.73C148.214 505.43 147.698 505.028 147.314 504.524C146.942 504.02 146.738 503.462 146.702 502.85H149.24C149.288 503.234 149.474 503.552 149.798 503.804C150.134 504.056 150.548 504.182 151.04 504.182C151.52 504.182 151.892 504.086 152.156 503.894C152.432 503.702 152.57 503.456 152.57 503.156C152.57 502.832 152.402 502.592 152.066 502.436C151.742 502.268 151.22 502.088 150.5 501.896C149.756 501.716 149.144 501.53 148.664 501.338C148.196 501.146 147.788 500.852 147.44 500.456C147.104 500.06 146.936 499.526 146.936 498.854C146.936 498.302 147.092 497.798 147.404 497.342C147.728 496.886 148.184 496.526 148.772 496.262C149.372 495.998 150.074 495.866 150.878 495.866C152.066 495.866 153.014 496.166 153.722 496.766C154.43 497.354 154.82 498.152 154.892 499.16H152.48C152.444 498.764 152.276 498.452 151.976 498.224C151.688 497.984 151.298 497.864 150.806 497.864C150.35 497.864 149.996 497.948 149.744 498.116C149.504 498.284 149.384 498.518 149.384 498.818C149.384 499.154 149.552 499.412 149.888 499.592C150.224 499.76 150.746 499.934 151.454 500.114C152.174 500.294 152.768 500.48 153.236 500.672C153.704 500.864 154.106 501.164 154.442 501.572C154.79 501.968 154.97 502.496 154.982 503.156C154.982 503.732 154.82 504.248 154.496 504.704C154.184 505.16 153.728 505.52 153.128 505.784C152.54 506.036 151.85 506.162 151.058 506.162Z" fill="white"/>
<path d="M59.762 456.002H63.902V458H57.242V445.436H59.762V456.002ZM64.8557 452.978C64.8557 451.97 65.0537 451.076 65.4497 450.296C65.8577 449.516 66.4037 448.916 67.0877 448.496C67.7837 448.076 68.5577 447.866 69.4097 447.866C70.1537 447.866 70.8017 448.016 71.3537 448.316C71.9177 448.616 72.3677 448.994 72.7037 449.45V448.028H75.2417V458H72.7037V456.542C72.3797 457.01 71.9297 457.4 71.3537 457.712C70.7897 458.012 70.1357 458.162 69.3917 458.162C68.5517 458.162 67.7837 457.946 67.0877 457.514C66.4037 457.082 65.8577 456.476 65.4497 455.696C65.0537 454.904 64.8557 453.998 64.8557 452.978ZM72.7037 453.014C72.7037 452.402 72.5837 451.88 72.3437 451.448C72.1037 451.004 71.7797 450.668 71.3717 450.44C70.9637 450.2 70.5257 450.08 70.0577 450.08C69.5897 450.08 69.1577 450.194 68.7617 450.422C68.3657 450.65 68.0417 450.986 67.7897 451.43C67.5497 451.862 67.4297 452.378 67.4297 452.978C67.4297 453.578 67.5497 454.106 67.7897 454.562C68.0417 455.006 68.3657 455.348 68.7617 455.588C69.1697 455.828 69.6017 455.948 70.0577 455.948C70.5257 455.948 70.9637 455.834 71.3717 455.606C71.7797 455.366 72.1037 455.03 72.3437 454.598C72.5837 454.154 72.7037 453.626 72.7037 453.014ZM80.2229 449.468C80.5469 449.012 80.9909 448.634 81.5549 448.334C82.1309 448.022 82.7849 447.866 83.5169 447.866C84.3689 447.866 85.1369 448.076 85.8209 448.496C86.5169 448.916 87.0629 449.516 87.4589 450.296C87.8669 451.064 88.0709 451.958 88.0709 452.978C88.0709 453.998 87.8669 454.904 87.4589 455.696C87.0629 456.476 86.5169 457.082 85.8209 457.514C85.1369 457.946 84.3689 458.162 83.5169 458.162C82.7849 458.162 82.1369 458.012 81.5729 457.712C81.0209 457.412 80.5709 457.034 80.2229 456.578V462.752H77.7029V448.028H80.2229V449.468ZM85.4969 452.978C85.4969 452.378 85.3709 451.862 85.1189 451.43C84.8789 450.986 84.5549 450.65 84.1469 450.422C83.7509 450.194 83.3189 450.08 82.8509 450.08C82.3949 450.08 81.9629 450.2 81.5549 450.44C81.1589 450.668 80.8349 451.004 80.5829 451.448C80.3429 451.892 80.2229 452.414 80.2229 453.014C80.2229 453.614 80.3429 454.136 80.5829 454.58C80.8349 455.024 81.1589 455.366 81.5549 455.606C81.9629 455.834 82.3949 455.948 82.8509 455.948C83.3189 455.948 83.7509 455.828 84.1469 455.588C84.5549 455.348 84.8789 455.006 85.1189 454.562C85.3709 454.118 85.4969 453.59 85.4969 452.978ZM92.8362 450.098V454.922C92.8362 455.258 92.9142 455.504 93.0702 455.66C93.2382 455.804 93.5142 455.876 93.8982 455.876H95.0682V458H93.4842C91.3602 458 90.2982 456.968 90.2982 454.904V450.098H89.1102V448.028H90.2982V445.562H92.8362V448.028H95.0682V450.098H92.8362ZM101.309 458.162C100.349 458.162 99.4847 457.952 98.7167 457.532C97.9487 457.1 97.3427 456.494 96.8987 455.714C96.4667 454.934 96.2507 454.034 96.2507 453.014C96.2507 451.994 96.4727 451.094 96.9167 450.314C97.3727 449.534 97.9907 448.934 98.7707 448.514C99.5507 448.082 100.421 447.866 101.381 447.866C102.341 447.866 103.211 448.082 103.991 448.514C104.771 448.934 105.383 449.534 105.827 450.314C106.283 451.094 106.511 451.994 106.511 453.014C106.511 454.034 106.277 454.934 105.809 455.714C105.353 456.494 104.729 457.1 103.937 457.532C103.157 457.952 102.281 458.162 101.309 458.162ZM101.309 455.966C101.765 455.966 102.191 455.858 102.587 455.642C102.995 455.414 103.319 455.078 103.559 454.634C103.799 454.19 103.919 453.65 103.919 453.014C103.919 452.066 103.667 451.34 103.163 450.836C102.671 450.32 102.065 450.062 101.345 450.062C100.625 450.062 100.019 450.32 99.5267 450.836C99.0467 451.34 98.8067 452.066 98.8067 453.014C98.8067 453.962 99.0407 454.694 99.5087 455.21C99.9887 455.714 100.589 455.966 101.309 455.966ZM110.879 449.468C111.203 449.012 111.647 448.634 112.211 448.334C112.787 448.022 113.441 447.866 114.173 447.866C115.025 447.866 115.793 448.076 116.477 448.496C117.173 448.916 117.719 449.516 118.115 450.296C118.523 451.064 118.727 451.958 118.727 452.978C118.727 453.998 118.523 454.904 118.115 455.696C117.719 456.476 117.173 457.082 116.477 457.514C115.793 457.946 115.025 458.162 114.173 458.162C113.441 458.162 112.793 458.012 112.229 457.712C111.677 457.412 111.227 457.034 110.879 456.578V462.752H108.359V448.028H110.879V449.468ZM116.153 452.978C116.153 452.378 116.027 451.862 115.775 451.43C115.535 450.986 115.211 450.65 114.803 450.422C114.407 450.194 113.975 450.08 113.507 450.08C113.051 450.08 112.619 450.2 112.211 450.44C111.815 450.668 111.491 451.004 111.239 451.448C110.999 451.892 110.879 452.414 110.879 453.014C110.879 453.614 110.999 454.136 111.239 454.58C111.491 455.024 111.815 455.366 112.211 455.606C112.619 455.834 113.051 455.948 113.507 455.948C113.975 455.948 114.407 455.828 114.803 455.588C115.211 455.348 115.535 455.006 115.775 454.562C116.027 454.118 116.153 453.59 116.153 452.978ZM124.374 458.162C123.558 458.162 122.826 458.018 122.178 457.73C121.53 457.43 121.014 457.028 120.63 456.524C120.258 456.02 120.054 455.462 120.018 454.85H122.556C122.604 455.234 122.79 455.552 123.114 455.804C123.45 456.056 123.864 456.182 124.356 456.182C124.836 456.182 125.208 456.086 125.472 455.894C125.748 455.702 125.886 455.456 125.886 455.156C125.886 454.832 125.718 454.592 125.382 454.436C125.058 454.268 124.536 454.088 123.816 453.896C123.072 453.716 122.46 453.53 121.98 453.338C121.512 453.146 121.104 452.852 120.756 452.456C120.42 452.06 120.252 451.526 120.252 450.854C120.252 450.302 120.408 449.798 120.72 449.342C121.044 448.886 121.5 448.526 122.088 448.262C122.688 447.998 123.39 447.866 124.194 447.866C125.382 447.866 126.33 448.166 127.038 448.766C127.746 449.354 128.136 450.152 128.208 451.16H125.796C125.76 450.764 125.592 450.452 125.292 450.224C125.004 449.984 124.614 449.864 124.122 449.864C123.666 449.864 123.312 449.948 123.06 450.116C122.82 450.284 122.7 450.518 122.7 450.818C122.7 451.154 122.868 451.412 123.204 451.592C123.54 451.76 124.062 451.934 124.77 452.114C125.49 452.294 126.084 452.48 126.552 452.672C127.02 452.864 127.422 453.164 127.758 453.572C128.106 453.968 128.286 454.496 128.298 455.156C128.298 455.732 128.136 456.248 127.812 456.704C127.5 457.16 127.044 457.52 126.444 457.784C125.856 458.036 125.166 458.162 124.374 458.162Z" fill="white"/>
<path d="M59.762 541.436V554H57.242V541.436H59.762ZM64.7718 545.468C65.0958 545.012 65.5398 544.634 66.1038 544.334C66.6798 544.022 67.3338 543.866 68.0658 543.866C68.9178 543.866 69.6858 544.076 70.3698 544.496C71.0658 544.916 71.6118 545.516 72.0078 546.296C72.4158 547.064 72.6198 547.958 72.6198 548.978C72.6198 549.998 72.4158 550.904 72.0078 551.696C71.6118 552.476 71.0658 553.082 70.3698 553.514C69.6858 553.946 68.9178 554.162 68.0658 554.162C67.3338 554.162 66.6858 554.012 66.1218 553.712C65.5698 553.412 65.1198 553.034 64.7718 552.578V558.752H62.2518V544.028H64.7718V545.468ZM70.0458 548.978C70.0458 548.378 69.9198 547.862 69.6678 547.43C69.4278 546.986 69.1038 546.65 68.6958 546.422C68.2998 546.194 67.8678 546.08 67.3998 546.08C66.9438 546.08 66.5118 546.2 66.1038 546.44C65.7078 546.668 65.3838 547.004 65.1318 547.448C64.8918 547.892 64.7718 548.414 64.7718 549.014C64.7718 549.614 64.8918 550.136 65.1318 550.58C65.3838 551.024 65.7078 551.366 66.1038 551.606C66.5118 551.834 66.9438 551.948 67.3998 551.948C67.8678 551.948 68.2998 551.828 68.6958 551.588C69.1038 551.348 69.4278 551.006 69.6678 550.562C69.9198 550.118 70.0458 549.59 70.0458 548.978ZM80.067 543.884C80.823 543.884 81.495 544.052 82.083 544.388C82.671 544.712 83.127 545.198 83.451 545.846C83.787 546.482 83.955 547.25 83.955 548.15V554H81.435V548.492C81.435 547.7 81.237 547.094 80.841 546.674C80.445 546.242 79.905 546.026 79.221 546.026C78.525 546.026 77.973 546.242 77.565 546.674C77.169 547.094 76.971 547.7 76.971 548.492V554H74.451V540.68H76.971V545.27C77.295 544.838 77.727 544.502 78.267 544.262C78.807 544.01 79.407 543.884 80.067 543.884ZM90.7794 554.162C89.8194 554.162 88.9554 553.952 88.1874 553.532C87.4194 553.1 86.8134 552.494 86.3694 551.714C85.9374 550.934 85.7214 550.034 85.7214 549.014C85.7214 547.994 85.9434 547.094 86.3874 546.314C86.8434 545.534 87.4614 544.934 88.2414 544.514C89.0214 544.082 89.8914 543.866 90.8514 543.866C91.8114 543.866 92.6814 544.082 93.4614 544.514C94.2414 544.934 94.8534 545.534 95.2974 546.314C95.7534 547.094 95.9814 547.994 95.9814 549.014C95.9814 550.034 95.7474 550.934 95.2794 551.714C94.8234 552.494 94.1994 553.1 93.4074 553.532C92.6274 553.952 91.7514 554.162 90.7794 554.162ZM90.7794 551.966C91.2354 551.966 91.6614 551.858 92.0574 551.642C92.4654 551.414 92.7894 551.078 93.0294 550.634C93.2694 550.19 93.3894 549.65 93.3894 549.014C93.3894 548.066 93.1374 547.34 92.6334 546.836C92.1414 546.32 91.5354 546.062 90.8154 546.062C90.0954 546.062 89.4894 546.32 88.9974 546.836C88.5174 547.34 88.2774 548.066 88.2774 549.014C88.2774 549.962 88.5114 550.694 88.9794 551.21C89.4594 551.714 90.0594 551.966 90.7794 551.966ZM103.356 543.884C104.544 543.884 105.504 544.262 106.236 545.018C106.968 545.762 107.334 546.806 107.334 548.15V554H104.814V548.492C104.814 547.7 104.616 547.094 104.22 546.674C103.824 546.242 103.284 546.026 102.6 546.026C101.904 546.026 101.352 546.242 100.944 546.674C100.548 547.094 100.35 547.7 100.35 548.492V554H97.8299V544.028H100.35V545.27C100.686 544.838 101.112 544.502 101.628 544.262C102.156 544.01 102.732 543.884 103.356 543.884ZM119 548.798C119 549.158 118.976 549.482 118.928 549.77H111.638C111.698 550.49 111.95 551.054 112.394 551.462C112.838 551.87 113.384 552.074 114.032 552.074C114.968 552.074 115.634 551.672 116.03 550.868H118.748C118.46 551.828 117.908 552.62 117.092 553.244C116.276 553.856 115.274 554.162 114.086 554.162C113.126 554.162 112.262 553.952 111.494 553.532C110.738 553.1 110.144 552.494 109.712 551.714C109.292 550.934 109.082 550.034 109.082 549.014C109.082 547.982 109.292 547.076 109.712 546.296C110.132 545.516 110.72 544.916 111.476 544.496C112.232 544.076 113.102 543.866 114.086 543.866C115.034 543.866 115.88 544.07 116.624 544.478C117.38 544.886 117.962 545.468 118.37 546.224C118.79 546.968 119 547.826 119 548.798ZM116.39 548.078C116.378 547.43 116.144 546.914 115.688 546.53C115.232 546.134 114.674 545.936 114.014 545.936C113.39 545.936 112.862 546.128 112.43 546.512C112.01 546.884 111.752 547.406 111.656 548.078H116.39ZM124.656 554.162C123.84 554.162 123.108 554.018 122.46 553.73C121.812 553.43 121.296 553.028 120.912 552.524C120.54 552.02 120.336 551.462 120.3 550.85H122.838C122.886 551.234 123.072 551.552 123.396 551.804C123.732 552.056 124.146 552.182 124.638 552.182C125.118 552.182 125.49 552.086 125.754 551.894C126.03 551.702 126.168 551.456 126.168 551.156C126.168 550.832 126 550.592 125.664 550.436C125.34 550.268 124.818 550.088 124.098 549.896C123.354 549.716 122.742 549.53 122.262 549.338C121.794 549.146 121.386 548.852 121.038 548.456C120.702 548.06 120.534 547.526 120.534 546.854C120.534 546.302 120.69 545.798 121.002 545.342C121.326 544.886 121.782 544.526 122.37 544.262C122.97 543.998 123.672 543.866 124.476 543.866C125.664 543.866 126.612 544.166 127.32 544.766C128.028 545.354 128.418 546.152 128.49 547.16H126.078C126.042 546.764 125.874 546.452 125.574 546.224C125.286 545.984 124.896 545.864 124.404 545.864C123.948 545.864 123.594 545.948 123.342 546.116C123.102 546.284 122.982 546.518 122.982 546.818C122.982 547.154 123.15 547.412 123.486 547.592C123.822 547.76 124.344 547.934 125.052 548.114C125.772 548.294 126.366 548.48 126.834 548.672C127.302 548.864 127.704 549.164 128.04 549.572C128.388 549.968 128.568 550.496 128.58 551.156C128.58 551.732 128.418 552.248 128.094 552.704C127.782 553.16 127.326 553.52 126.726 553.784C126.138 554.036 125.448 554.162 124.656 554.162Z" fill="white"/>
<circle cx="30.5" cy="452.5" r="7.5" fill="#E95838"/>
<circle cx="30.5" cy="548.5" r="7.5" fill="#CFF468"/>
<circle cx="30.5" cy="500.5" r="7.5" fill="#516E74"/>
<path d="M295.338 540.49V556H291.026V547.442L288.1 556H284.492L281.544 547.376V556H277.232V540.49H282.446L286.34 550.566L290.146 540.49H295.338ZM303.535 556.154C302.303 556.154 301.195 555.897 300.213 555.384C299.245 554.871 298.482 554.137 297.925 553.184C297.367 552.231 297.089 551.109 297.089 549.818C297.089 548.542 297.367 547.427 297.925 546.474C298.497 545.521 299.267 544.787 300.235 544.274C301.217 543.761 302.325 543.504 303.557 543.504C304.789 543.504 305.889 543.761 306.857 544.274C307.839 544.787 308.609 545.521 309.167 546.474C309.739 547.427 310.025 548.542 310.025 549.818C310.025 551.094 309.739 552.216 309.167 553.184C308.609 554.137 307.839 554.871 306.857 555.384C305.874 555.897 304.767 556.154 303.535 556.154ZM303.535 552.414C304.136 552.414 304.635 552.194 305.031 551.754C305.441 551.299 305.647 550.654 305.647 549.818C305.647 548.982 305.441 548.344 305.031 547.904C304.635 547.464 304.143 547.244 303.557 547.244C302.97 547.244 302.479 547.464 302.083 547.904C301.687 548.344 301.489 548.982 301.489 549.818C301.489 550.669 301.679 551.314 302.061 551.754C302.442 552.194 302.933 552.414 303.535 552.414ZM316.091 545.836C316.575 545.132 317.162 544.575 317.851 544.164C318.54 543.753 319.281 543.548 320.073 543.548V548.146H318.863C317.924 548.146 317.228 548.329 316.773 548.696C316.318 549.063 316.091 549.701 316.091 550.61V556H311.779V543.658H316.091V545.836ZM333.411 549.686C333.411 550.023 333.389 550.361 333.345 550.698H325.183C325.227 551.373 325.41 551.879 325.733 552.216C326.07 552.539 326.495 552.7 327.009 552.7C327.727 552.7 328.241 552.377 328.549 551.732H333.147C332.956 552.583 332.582 553.345 332.025 554.02C331.482 554.68 330.793 555.201 329.957 555.582C329.121 555.963 328.197 556.154 327.185 556.154C325.967 556.154 324.882 555.897 323.929 555.384C322.99 554.871 322.249 554.137 321.707 553.184C321.179 552.231 320.915 551.109 320.915 549.818C320.915 548.527 321.179 547.413 321.707 546.474C322.235 545.521 322.968 544.787 323.907 544.274C324.86 543.761 325.953 543.504 327.185 543.504C328.402 543.504 329.48 543.753 330.419 544.252C331.357 544.751 332.091 545.469 332.619 546.408C333.147 547.332 333.411 548.425 333.411 549.686ZM329.011 548.608C329.011 548.08 328.835 547.669 328.483 547.376C328.131 547.068 327.691 546.914 327.163 546.914C326.635 546.914 326.202 547.061 325.865 547.354C325.527 547.633 325.307 548.051 325.205 548.608H329.011Z" fill="white"/>
<path d="M358.061 550.061C358.646 549.475 358.646 548.525 358.061 547.939L348.515 538.393C347.929 537.808 346.979 537.808 346.393 538.393C345.808 538.979 345.808 539.929 346.393 540.515L354.879 549L346.393 557.485C345.808 558.071 345.808 559.021 346.393 559.607C346.979 560.192 347.929 560.192 348.515 559.607L358.061 550.061ZM341 550.5H357V547.5H341V550.5Z" fill="white"/>
<circle cx="190" cy="245" r="137" fill="#D9D9D9"/>
<path d="M276 245C276 292.496 237.496 331 190 331C142.504 331 104 292.496 104 245C104 197.504 142.504 159 190 159C237.496 159 276 197.504 276 245Z" fill="#1E1E1E"/>
</svg>
